<?xml version="1.0" encoding="utf-8"?>
<!-- Generator: Adobe Illustrator 24.2.3, SVG Export Plug-In . SVG Version: 6.00 Build 0)  -->
<svg version="1.1" id="Layer_1" xmlns="http://www.w3.org/2000/svg" xmlns:xlink="http://www.w3.org/1999/xlink" x="0px" y="0px"
	 viewBox="0 0 1121.2 415.7" style="enable-background:new 0 0 1121.2 415.7;" xml:space="preserve">
<style type="text/css">
	.st0{fill:#EC294C;}
	.st1{enable-background:new    ;}
	.st2{fill:#19191A;}
	.st3{font-family:'DINNextLTArabic-Bold';}
	.st4{font-size:90.57px;}
	.st5{fill:#808080;}
</style>
<path class="st0" d="M188.8,415.7L62.3,288.4l-0.6,0.4c0.8,1.2,1.6,2.5,2.5,3.7c15.6,21.1,31.2,42.1,46.8,63.1c0.9,1,2.1,1.7,3.4,2
	c2.8,0.6,5,3,4.7,5.6c-0.3,2.7-2.7,4.7-5.4,4.5c-2.5,0-4.5-2.1-4.5-4.6c0-0.3,0-0.7,0.1-1c0.2-1.9-0.3-3.8-1.6-5.2
	c-11.1-14.9-22.1-29.8-33-44.7c-8.3-11.2-16.5-22.4-24.8-33.6c-0.5-0.7-1.1-1.3-1.8-2l-3,1.6c-1.8-2.4-3.7-4.9-5.5-7.3
	c-0.3-0.4-0.3-1.4,0-1.5c1.8-1.3,0.9-2.5,0-3.7c-8.5-11.4-16.9-22.8-25.5-34.2c-1-1.1-2.2-1.9-3.6-2.3c-2.5-0.8-4-3.3-3.6-5.8
	c0.5-2.5,2.8-4.1,5.3-3.9c2.7,0.1,5,2,4.3,4.6c-1.1,4.3,1.4,6.7,3.5,9.5c3.2,4.2,6.2,8.5,9.4,12.8c0.6,0.8,1.3,1.4,2.2,1.9
	c-5.1-13.5-8.3-27.2-8-41.7s3.9-28.1,9.9-41.2l-0.7-0.4c-1.6,2.2-3.2,4.3-4.7,6.6c-5.6,8.1-11.2,16.3-16.7,24.5
	c-0.5,1.1-0.7,2.4-0.5,3.6c0.2,2.4,0.2,4.9-2.3,6c-1.7,0.8-3.6,0.9-5.3,0.4c-2.5-0.8-3.6-3.1-3.1-5.8c0.5-2.5,2.1-3.8,4.6-4.4
	c1.4-0.3,2.7-1,3.6-2.1c9.1-13,18-26,26.9-39.2c0.6-0.9-0.3-2.8-0.5-4.2l-1.1-0.1l5.8-8.5l3.3,1.9c2.3-3,4.6-6,6.9-9
	C59.1,122,68.4,109.2,78,96.5c1.3-1.5,1.8-3.6,1.4-5.5c-0.4-2.5,1-4.9,3.4-5.7c2.8-0.8,5.4,0.2,6.6,2.6c1.3,2.4,0.7,5.3-1.6,6.9
	c-0.4,0.3-0.9,0.7-1.2,0.7c-3.8-0.5-5,2.3-6.8,4.7c-9.3,12.6-18.7,25.1-28,37.6c-0.1,0.1-0.1,0.4,0.2,0.9L189.1,0l57.5,56.7
	c-0.7,0.8-1.2,1.4-1.8,2c-37.9,38.4-75.8,76.7-113.7,115.1c-5,4.9-9.8,10-14.2,15.4c-9.3,11.8-9.3,24,0.2,35.7
	c5.1,6.3,10.8,12,16.4,17.7c17,17.4,34.1,34.7,51.2,51.9c0.5,0.5,1,0.9,1.7,1.4c6-5.8,12.1-11.4,17.9-17.2c21.2-21,42.3-42,63.4-63
	c6.5-6.6,6.7-10.5,0.8-17.8c-2.7-3.3-6-6.1-8.8-8.8l-72.9,72.1c-1.2-1.1-1.9-1.8-2.7-2.5l-37.4-38.4c-4.9-5.1-7.4-10.9-4.6-17.8
	c1.1-2.6,3.2-4.8,5.2-6.8c29.1-29.2,58.3-58.4,87.4-87.5c9.6-9.7,19.4-19.3,29-29c1.7-1.8,2.7-1.6,4.3,0.1
	c16.2,16.9,32.3,33.7,48.6,50.5c1.6,1.6,3,3.3,4.5,5l0.5-0.4c-4.7-6.4-9.5-12.9-14.2-19.3c-4.1-5.6-8.2-11.2-12.4-16.6
	c-1.1-1.4-2.5-2.4-4.2-2.8c-3-0.7-5.1-2.7-4.9-5.7c0.2-3.2,2.6-5.2,6.1-4.9c2.9,0.2,5.3,2.6,4.6,5.4s0.5,4.7,2.1,6.7
	c11.1,14.9,22.1,29.7,33.1,44.6c0.5,0.6,0.8,1.3,1.2,1.9l3.5-2.2c1.8,2.6,3.5,5.1,5.2,7.8c0.2,0.7,0,1.4-0.5,1.9
	c-1.8,1.2-1.3,2.3-0.3,3.8c8.8,12.6,17.5,25.3,26.1,37.9c1.1,1.6,2.2,2.9,4.5,3c3,0.2,4.7,2.9,4.4,6.2c-0.2,2.4-3,4.6-5.8,4.5
	s-5.5-2.6-4.8-5.3c1.1-3.9-1.1-6.1-2.9-8.7c-4-5.7-8-11.5-12-17.3c-0.6-0.8-1.3-1.6-2.1-2.1c8.8,25,7.6,49.4-2.6,73.8
	c0.5-0.5,1-1.1,1.5-1.7c3.8-5.1,7.5-10.2,11.3-15.3c1.1-1.1,1.5-2.8,1-4.4c-0.7-2.3-0.2-4.7,2.3-5.9c2-1.1,4.5-0.6,6,1.1
	c1.8,2.1,1.5,5.3-0.6,7.1c-0.5,0.4-1.1,0.8-1.8,1c-1.5,0.4-2.8,1.3-3.9,2.5c-8.5,11.3-16.9,22.6-25.3,34c-0.8,1-1.9,2.1-0.3,3.5
	c0.3,0.3,0.3,1.5,0,1.9c-1.6,2.4-3.4,4.6-5.2,7.1c-3-2.8-4.3-0.4-5.9,1.8c-10.9,14.9-21.8,29.7-32.8,44.5
	c-8.2,11.1-16.5,22.2-24.6,33.4c-0.7,1.2-1,2.6-0.9,4c0.1,3.5-1.4,5.6-4.5,5.9c-2.7,0.1-5.1-1.9-5.4-4.5c-0.3-2.8,1.9-5.1,5-5.6
	c1.2-0.2,2.2-0.8,3-1.7c16.9-22.7,33.7-45.5,50.5-68.3c1.1-1.3,1.9-2.8,2.4-4.4L188.8,415.7z"/>
<g class="st1">
	<path class="st2" d="M406.8,206.6c-0.4-1.1-0.6-2.1-0.9-3.2c-0.2-1-0.4-2.2-0.5-3.4c-0.1-1.3-0.2-2.7-0.3-4.3
		c-0.1-1.6-0.1-3.6-0.1-5.9c0-2.3,0-4.3,0.1-5.9c0.1-1.6,0.2-3.1,0.3-4.3c0.1-1.3,0.3-2.4,0.5-3.4c0.2-1,0.5-2.1,0.9-3.2
		c1.6-5,4.4-8.8,8.4-11.2c4-2.5,8.8-3.7,14.3-3.7c2.9,0,5.5,0.3,7.9,1c2.4,0.7,4.5,1.6,6.3,2.8c1.8,1.2,3.4,2.6,4.7,4.2
		c1.3,1.6,2.3,3.3,3,5.2c0.3,0.6,0.2,1.1-0.4,1.4l-9.7,4.1c-0.7,0.2-1.1,0-1.3-0.5c-1.2-2.1-2.6-3.7-4.3-4.8
		c-1.7-1.1-3.8-1.6-6.3-1.6c-2.7,0-4.8,0.6-6.4,1.9c-1.6,1.2-2.8,2.9-3.4,5c-0.2,0.5-0.3,1.2-0.5,1.9c-0.1,0.7-0.2,1.5-0.3,2.5
		c-0.1,1-0.2,2.2-0.2,3.6c0,1.4,0,3.1,0,5.1c0,2,0,3.7,0,5.2c0,1.4,0.1,2.7,0.2,3.7c0.1,1,0.2,1.8,0.3,2.5c0.1,0.7,0.3,1.3,0.5,1.9
		c0.7,2.1,1.8,3.8,3.5,5c1.7,1.2,3.8,1.8,6.6,1.8c2.3,0,4.3-0.5,6.2-1.6c1.8-1.1,3-2.7,3.7-4.7c0.2-0.8,0.4-1.7,0.5-2.6
		c0.1-1,0.2-2.1,0.2-3.4c0-0.4-0.2-0.5-0.5-0.5h-8.3c-0.6,0-0.9-0.3-0.9-0.9v-8.7c0-0.6,0.3-0.9,0.9-0.9h21.2c0.6,0,0.9,0.3,0.9,0.9
		v5.1c0,2.7-0.1,5.3-0.4,7.7c-0.2,2.4-0.6,4.5-1.2,6.2c-1.6,5-4.3,8.8-8.3,11.4c-4,2.7-8.7,4-14.2,4c-5.5,0-10.3-1.2-14.3-3.7
		C411.2,215.3,408.4,211.6,406.8,206.6z"/>
	<path class="st2" d="M464.3,220.5c-0.6,0-0.9-0.3-0.9-0.9v-42c0-0.6,0.3-0.9,0.9-0.9h10.9c0.6,0,0.9,0.3,0.9,0.9v3.7h0.1
		c1-1.8,2.5-3.1,4.4-4.1c1.9-1,4.3-1.5,7-1.5c1.4,0,2.9,0.2,4.2,0.7c1.4,0.5,2.5,1.1,3.5,1.9c0.4,0.4,0.5,0.8,0.3,1.3l-5.1,9.2
		c-0.3,0.4-0.7,0.4-1.3,0.2c-2.2-1.4-4.3-2.1-6.3-2c-2.4,0.1-4.1,1-5.2,2.6c-1.1,1.6-1.6,3.9-1.6,6.9v23.1c0,0.6-0.3,0.9-0.9,0.9
		H464.3z"/>
	<path class="st2" d="M527.7,220.5c-0.6,0-0.9-0.3-0.9-0.9v-2.9h-0.1c-1.1,1.4-2.7,2.6-4.6,3.5c-1.9,0.9-4.4,1.3-7.4,1.3
		c-1.9,0-3.8-0.3-5.6-0.8c-1.8-0.5-3.3-1.3-4.7-2.4c-1.3-1.1-2.4-2.5-3.2-4.2c-0.8-1.7-1.2-3.7-1.2-6.1c0-4.8,1.7-8.4,5-10.7
		c3.4-2.3,7.7-3.4,13.2-3.4h7.8c0.4,0,0.5-0.2,0.5-0.5v-1.6c0-2.1-0.6-3.6-1.9-4.5c-1.2-1-3.6-1.4-7.1-1.4c-2.2,0-4.2,0.3-5.8,0.8
		c-1.6,0.5-3,1.2-4,2c-0.5,0.4-0.9,0.3-1.2-0.2l-4.1-7.2c-0.3-0.5-0.2-1,0.3-1.3c1.9-1.3,4.2-2.4,6.8-3.2c2.7-0.8,5.8-1.2,9.5-1.2
		c3.6,0,6.6,0.3,9.1,1c2.5,0.6,4.5,1.6,6,2.9c1.5,1.3,2.7,2.9,3.4,4.9c0.7,2,1,4.3,1,7.1v28.1c0,0.6-0.3,0.9-0.9,0.9H527.7z
		 M518.5,212c5.4,0,8.2-2,8.2-6.1v-3c0-0.4-0.2-0.5-0.5-0.5h-6.2c-5.2,0-7.8,1.7-7.8,5C512.1,210.4,514.3,212,518.5,212z"/>
	<path class="st2" d="M550.7,236.8c-0.6,0-0.9-0.3-0.9-0.9v-58.3c0-0.6,0.3-0.9,0.9-0.9h10.9c0.6,0,0.9,0.3,0.9,0.9v3.2h0.1
		c1-1.5,2.5-2.7,4.3-3.7c1.9-0.9,4.3-1.4,7.2-1.4c3.7,0,6.8,0.9,9.3,2.6c2.5,1.8,4.4,4.4,5.5,7.9c0.5,1.8,0.9,3.5,1.2,5.3
		c0.2,1.8,0.4,4.2,0.4,7.1c0,2.8-0.1,5.2-0.4,7c-0.2,1.8-0.6,3.6-1.2,5.4c-1.1,3.4-3,6.1-5.5,7.8s-5.6,2.7-9.3,2.7
		c-2.9,0-5.3-0.5-7.2-1.4c-1.9-0.9-3.3-2.2-4.3-3.7h-0.1v19.5c0,0.6-0.3,0.9-0.9,0.9H550.7z M570,210.8c3.5,0,5.8-1.6,6.8-4.7
		c0.3-0.8,0.5-1.8,0.6-2.9c0.1-1.1,0.2-2.6,0.2-4.6c0-1.9-0.1-3.5-0.2-4.6c-0.1-1.1-0.3-2.1-0.6-2.9c-1-3.1-3.2-4.7-6.8-4.7
		c-3.5,0-5.7,1.6-6.7,4.7c-0.3,0.8-0.5,1.8-0.6,2.9c-0.1,1.1-0.2,2.6-0.2,4.6c0,1.9,0.1,3.5,0.2,4.6c0.1,1.1,0.3,2.1,0.6,2.9
		C564.3,209.2,566.6,210.8,570,210.8z"/>
	<path class="st2" d="M627,220.5c-0.6,0-0.9-0.3-0.9-0.9v-25.2c0-2.4-0.6-4.3-1.7-5.8c-1.1-1.4-2.8-2.2-5.1-2.2
		c-2.2,0-3.9,0.7-5.1,2.2c-1.2,1.4-1.8,3.4-1.8,5.8v25.2c0,0.6-0.3,0.9-0.9,0.9h-10.9c-0.6,0-0.9-0.3-0.9-0.9v-59.8
		c0-0.6,0.3-0.9,0.9-0.9h10.9c0.6,0,0.9,0.3,0.9,0.9v20.9h0.1c1-1.4,2.5-2.5,4.3-3.5c1.8-1,4.2-1.4,7-1.4c2.4,0,4.6,0.4,6.4,1.2
		c1.9,0.8,3.4,1.9,4.7,3.3c1.3,1.4,2.2,3.2,2.9,5.2c0.6,2,1,4.2,1,6.6v27.6c0,0.6-0.3,0.9-0.9,0.9H627z"/>
	<path class="st2" d="M650.7,169.7c-0.6,0-0.9-0.3-0.9-0.9v-8.9c0-0.6,0.3-0.9,0.9-0.9h10.9c0.6,0,0.9,0.3,0.9,0.9v8.9
		c0,0.6-0.3,0.9-0.9,0.9H650.7z M650.7,220.5c-0.6,0-0.9-0.3-0.9-0.9v-42c0-0.6,0.3-0.9,0.9-0.9h10.9c0.6,0,0.9,0.3,0.9,0.9v42
		c0,0.6-0.3,0.9-0.9,0.9H650.7z"/>
	<path class="st2" d="M692,221.5c-4.7,0-8.6-1-12-3.1c-3.3-2.1-5.6-5.2-7-9.3c-0.5-1.3-0.8-2.8-1-4.5c-0.2-1.7-0.3-3.7-0.3-6
		c0-2.3,0.1-4.3,0.3-6c0.2-1.7,0.6-3.2,1-4.5c1.3-4.1,3.7-7.2,7-9.3c3.3-2.1,7.3-3.1,12-3.1c3.8,0,7.1,0.8,10,2.3
		c2.8,1.5,5,3.5,6.6,5.9c0.3,0.5,0.2,0.9-0.2,1.3l-7.9,5.2c-0.5,0.4-1,0.3-1.4-0.2c-1-1.3-2-2.3-3-2.9c-1.1-0.6-2.4-0.9-3.9-0.9
		c-1.7,0-3.1,0.4-4.3,1.2c-1.2,0.8-2,2-2.5,3.5c-0.3,0.9-0.5,1.9-0.6,3.1c-0.1,1.1-0.2,2.6-0.2,4.4s0.1,3.3,0.2,4.4
		c0.1,1.1,0.3,2.2,0.6,3.1c0.5,1.6,1.3,2.7,2.5,3.5c1.2,0.8,2.6,1.2,4.3,1.2c1.6,0,2.9-0.3,3.9-0.9c1.1-0.6,2.1-1.6,3-2.9
		c0.4-0.5,0.8-0.5,1.4-0.2l7.9,5.2c0.4,0.4,0.5,0.8,0.2,1.3c-1.6,2.4-3.8,4.4-6.6,5.9C699.1,220.7,695.8,221.5,692,221.5z"/>
	<path class="st2" d="M752.6,220.5c-0.6,0-0.9-0.3-0.9-0.9v-48.3c0-0.4-0.2-0.5-0.5-0.5h-15.6c-0.6,0-0.9-0.3-0.9-0.9v-10
		c0-0.6,0.3-0.9,0.9-0.9h45.6c0.6,0,0.9,0.3,0.9,0.9v10c0,0.6-0.3,0.9-0.9,0.9h-15.6c-0.4,0-0.5,0.2-0.5,0.5v48.3
		c0,0.6-0.3,0.9-0.9,0.9H752.6z"/>
	<path class="st2" d="M807.6,221.5c-4.6,0-8.7-1.1-12-3.2c-3.4-2.1-5.7-5.2-7-9.1c-0.5-1.6-0.8-3.2-1.1-4.8
		c-0.2-1.7-0.4-3.6-0.4-5.8s0.1-4.1,0.4-5.8c0.2-1.7,0.6-3.3,1.1-4.8c1.3-4,3.6-7,7-9.1c3.4-2.1,7.4-3.2,12-3.2s8.7,1.1,12,3.2
		c3.4,2.1,5.7,5.2,7,9.1c0.5,1.6,0.8,3.2,1.1,4.8c0.2,1.7,0.4,3.6,0.4,5.8s-0.1,4.1-0.4,5.8c-0.2,1.7-0.6,3.3-1.1,4.8
		c-1.3,4-3.6,7-7,9.1C816.2,220.4,812.2,221.5,807.6,221.5z M807.6,210.8c3.5,0,5.8-1.6,6.8-4.7c0.3-1,0.5-2.1,0.6-3.1
		c0.1-1.1,0.2-2.5,0.2-4.4c0-1.9-0.1-3.3-0.2-4.4c-0.1-1.1-0.3-2.1-0.6-3.1c-1-3.1-3.3-4.7-6.8-4.7c-3.5,0-5.8,1.6-6.8,4.7
		c-0.3,1-0.5,2.1-0.6,3.1c-0.1,1.1-0.2,2.5-0.2,4.4c0,1.9,0.1,3.3,0.2,4.4c0.1,1.1,0.3,2.1,0.6,3.1
		C801.8,209.2,804.1,210.8,807.6,210.8z"/>
	<path class="st2" d="M874.9,220.5c-0.5,0-0.9-0.3-1.1-0.9l-7.5-25.5h-0.2l-7.7,25.5c-0.2,0.6-0.5,0.9-1.1,0.9h-9
		c-0.5,0-0.9-0.3-1.1-0.9l-14-42c-0.2-0.6,0-0.9,0.6-0.9H845c0.7,0,1.1,0.3,1.3,0.9l7.2,26.1h0.2l7.5-26.1c0.2-0.6,0.6-0.9,1.3-0.9
		h7.6c0.6,0,1,0.3,1.2,0.9l7.7,26.1h0.2l6.9-26.1c0.2-0.6,0.6-0.9,1.2-0.9h11.1c0.7,0,0.9,0.3,0.7,0.9l-14,42
		c-0.2,0.6-0.5,0.9-1.1,0.9H874.9z"/>
	<path class="st2" d="M933.7,220.5c-0.6,0-0.9-0.3-0.9-0.9v-25.2c0-2.4-0.6-4.3-1.7-5.8c-1.1-1.4-2.8-2.2-5.1-2.2
		c-2.2,0-3.9,0.7-5.1,2.2c-1.2,1.4-1.8,3.4-1.8,5.8v25.2c0,0.6-0.3,0.9-0.9,0.9h-10.9c-0.6,0-0.9-0.3-0.9-0.9v-42
		c0-0.6,0.3-0.9,0.9-0.9h10.9c0.6,0,0.9,0.3,0.9,0.9v3.1h0.1c1-1.4,2.5-2.5,4.3-3.5c1.8-1,4.2-1.4,7-1.4c2.4,0,4.6,0.4,6.4,1.2
		c1.9,0.8,3.4,1.9,4.7,3.3c1.3,1.4,2.2,3.2,2.9,5.2c0.6,2,1,4.2,1,6.6v27.6c0,0.6-0.3,0.9-0.9,0.9H933.7z"/>
</g>
<text transform="matrix(1 0 0 1 946.55 220.5)" class="st3 st4"> </text>
<g class="st1">
	<path class="st0" d="M990.4,159.8c0.2-0.6,0.6-0.9,1.2-0.9h11.4c0.6,0,1,0.3,1.2,0.9l20.8,59.8c0.2,0.6,0,0.9-0.6,0.9h-11.8
		c-0.6,0-1-0.3-1.2-0.9l-3.5-10.8h-21.6l-3.4,10.8c-0.2,0.6-0.6,0.9-1.2,0.9h-11.9c-0.6,0-0.8-0.3-0.6-0.9L990.4,159.8z
		 M1004.2,197.5l-7-21.6H997l-7,21.6H1004.2z"/>
	<path class="st0" d="M1058.7,220.5c-0.6,0-0.9-0.3-0.9-0.9v-3.2h-0.1c-1,1.5-2.5,2.7-4.3,3.7c-1.9,0.9-4.3,1.4-7.2,1.4
		c-3.7,0-6.8-0.9-9.3-2.7s-4.4-4.4-5.5-7.8c-0.5-1.8-0.9-3.5-1.2-5.4c-0.2-1.8-0.4-4.2-0.4-7c0-2.9,0.1-5.3,0.4-7.1
		c0.2-1.8,0.6-3.6,1.2-5.3c1.1-3.5,3-6.1,5.5-7.9c2.5-1.8,5.6-2.6,9.3-2.6c2.9,0,5.3,0.5,7.2,1.4c1.9,0.9,3.3,2.2,4.3,3.7h0.1v-20.9
		c0-0.6,0.3-0.9,0.9-0.9h10.9c0.6,0,0.9,0.3,0.9,0.9v59.8c0,0.6-0.3,0.9-0.9,0.9H1058.7z M1050.2,210.8c3.4,0,5.7-1.6,6.7-4.7
		c0.3-0.8,0.5-1.8,0.6-2.9c0.1-1.1,0.2-2.6,0.2-4.6c0-1.9-0.1-3.5-0.2-4.6c-0.1-1.1-0.3-2.1-0.6-2.9c-1-3.1-3.2-4.7-6.7-4.7
		c-3.6,0-5.8,1.6-6.8,4.7c-0.3,0.8-0.5,1.8-0.6,2.9c-0.1,1.1-0.2,2.6-0.2,4.6c0,1.9,0.1,3.5,0.2,4.6c0.1,1.1,0.3,2.1,0.6,2.9
		C1044.5,209.2,1046.7,210.8,1050.2,210.8z"/>
	<path class="st0" d="M1099.1,221.5c-4.6,0-8.5-0.7-11.8-2c-3.3-1.4-6-2.9-8.1-4.8c-0.4-0.4-0.4-0.8,0-1.3l5.9-6.6
		c0.4-0.4,0.8-0.4,1.3,0c1.9,1.5,4.1,2.7,6.4,3.5c2.4,0.8,4.7,1.3,7,1.3c2.3,0,4-0.4,5.1-1.2c1.1-0.8,1.7-1.8,1.7-3
		c0-1-0.4-1.9-1.2-2.5c-0.8-0.6-2.5-1.1-5-1.3l-4.9-0.5c-4.7-0.5-8.2-1.8-10.6-4.1c-2.4-2.2-3.7-5.3-3.7-9.3c0-4.3,1.6-7.8,4.7-10.3
		c3.1-2.5,7.6-3.8,13.3-3.8c3.7,0,7.1,0.5,10.1,1.5c3,1,5.6,2.3,7.6,3.9c0.4,0.4,0.5,0.9,0.1,1.4l-5.1,6.2c-0.4,0.4-0.8,0.5-1.3,0.2
		c-1.5-1-3.3-1.8-5.3-2.5c-2.1-0.7-4.2-1-6.5-1c-1.9,0-3.3,0.3-4.2,1c-0.9,0.7-1.4,1.5-1.4,2.6c0,1,0.4,1.8,1.2,2.4
		c0.8,0.6,2.4,1,4.9,1.2l4.8,0.5c5.2,0.5,8.9,1.9,11.2,4.3c2.3,2.4,3.4,5.4,3.4,9.1c-0.1,4.5-1.8,8.2-5.1,10.9
		C1110.2,220.1,1105.3,221.5,1099.1,221.5z"/>
</g>
<path class="st5" d="M508.6,297.6c-0.3,0-0.6-0.2-0.7-0.5c0-0.1,0-0.1,0-0.2v-3.8c0-0.3,0.2-0.6,0.5-0.7c0.1,0,0.1,0,0.2,0h1.2
	c1.1,0.1,2.2-0.3,3.1-1c1-1.1,1.8-2.3,2.2-3.7l1-2.9L504.6,255c-0.1-0.4,0-0.7,0.5-0.7h4.6c0.4,0,0.7,0.3,0.8,0.7l8.3,22.8h0.1
	l8-22.8c0.1-0.4,0.4-0.7,0.8-0.7h4.5c0.5,0,0.7,0.2,0.5,0.7l-12.5,33.3c-0.6,1.6-1.3,3.1-2.1,4.6c-0.6,1.1-1.3,2-2.2,2.9
	c-0.7,0.7-1.6,1.2-2.5,1.5c-1,0.3-2.1,0.4-3.2,0.4L508.6,297.6z"/>
<path class="st5" d="M550.8,286.5c-2.8,0.1-5.5-0.7-7.9-2.2c-2.2-1.5-3.8-3.7-4.6-6.3c-0.4-1.1-0.6-2.3-0.8-3.5
	c-0.2-1.5-0.3-3-0.3-4.6c0-1.5,0.1-3,0.3-4.5c0.2-1.2,0.4-2.3,0.8-3.4c0.8-2.6,2.4-4.8,4.6-6.3c4.8-2.9,10.9-2.9,15.7,0
	c2.2,1.5,3.8,3.7,4.6,6.3c0.4,1.1,0.6,2.3,0.8,3.4c0.2,1.5,0.3,3,0.3,4.5c0,1.5-0.1,3.1-0.3,4.6c-0.2,1.2-0.4,2.3-0.8,3.5
	c-0.8,2.5-2.4,4.7-4.6,6.3C556.3,285.8,553.5,286.6,550.8,286.5z M550.8,281.4c1.6,0,3.2-0.4,4.5-1.3c1.3-0.9,2.2-2.2,2.6-3.6
	c0.3-0.9,0.5-1.8,0.6-2.7c0.1-1.2,0.2-2.5,0.2-3.7c0-1.2,0-2.5-0.2-3.7c-0.1-0.9-0.3-1.8-0.6-2.7c-0.5-1.5-1.4-2.8-2.6-3.6
	c-2.7-1.7-6.2-1.7-8.9,0c-1.3,0.9-2.2,2.2-2.6,3.6c-0.3,0.9-0.4,1.8-0.6,2.7c-0.1,1.2-0.2,2.5-0.2,3.7c0,1.2,0,2.5,0.2,3.7
	c0.1,0.9,0.3,1.8,0.6,2.7c0.5,1.5,1.4,2.8,2.6,3.6C547.6,281,549.2,281.5,550.8,281.4z"/>
<path class="st5" d="M592.9,285.9c-0.3,0-0.6-0.2-0.7-0.5c0-0.1,0-0.1,0-0.2v-3h-0.1c-0.8,1.3-2,2.4-3.4,3.2
	c-1.6,0.8-3.4,1.2-5.2,1.2c-3.5,0-6.2-1.1-8-3.3c-2-2.4-3-5.5-2.9-8.6V255c0-0.3,0.2-0.6,0.5-0.7c0.1,0,0.1,0,0.2,0h4.2
	c0.3,0,0.6,0.2,0.7,0.5c0,0.1,0,0.1,0,0.2v18.4c-0.1,2.1,0.5,4.3,1.7,6c1.3,1.5,3.3,2.3,5.3,2.1c1.9,0.1,3.8-0.7,5.2-2.1
	c1.4-1.6,2-3.6,1.9-5.6V255c0-0.3,0.2-0.6,0.5-0.7c0.1,0,0.1,0,0.2,0h4.2c0.3,0,0.6,0.2,0.7,0.5c0,0.1,0,0.1,0,0.2v30.2
	c0,0.3-0.2,0.6-0.5,0.7c-0.1,0-0.1,0-0.2,0L592.9,285.9z"/>
<path class="st5" d="M609.2,285.9c-0.3,0-0.6-0.2-0.7-0.5c0-0.1,0-0.1,0-0.2V255c0-0.3,0.2-0.6,0.5-0.7c0.1,0,0.1,0,0.2,0h4.2
	c0.3,0,0.6,0.2,0.7,0.5c0,0.1,0,0.1,0,0.2v3.2h0.1c0.7-1.4,1.8-2.5,3.1-3.3c1.6-0.9,3.4-1.3,5.2-1.3c1.2,0,2.4,0.2,3.6,0.6
	c1.1,0.4,2,1,2.9,1.7c0.3,0.2,0.4,0.6,0.1,0.9c0,0,0,0,0,0l-2.4,3.2c-0.2,0.3-0.5,0.4-0.8,0.2c0,0-0.1-0.1-0.1-0.1
	c-0.7-0.5-1.5-0.8-2.3-1.1c-0.8-0.3-1.7-0.4-2.6-0.4c-2.1-0.2-4.1,0.8-5.2,2.5c-1.1,2-1.7,4.3-1.6,6.7v17.2c0,0.3-0.2,0.6-0.5,0.7
	c-0.1,0-0.1,0-0.2,0L609.2,285.9z"/>
<path class="st5" d="M691.1,261.7c-1.5-0.1-3,0.2-4.4,0.8c-5.1,1.9-13.8,6.5-14.1,7.6c-0.1,0.3-0.5,1.5-0.8,2.6
	c-2.8,9.9-6.5,19.6-11.2,28.7c-3.2,6.6-7.5,12.6-12.6,17.8c-1.8,1.8-6.7,6-8.4,7.3c-1.6,1.2-3.2,2.3-4.9,3.3
	c-4.9,2.8-7.6,3.5-10,2.3c-0.4-0.2-0.9-0.4-1.4-0.5c-0.9-0.1-2.8-3.2-2.8-4.5c0-0.6-0.2-1.2-0.4-1.7c-0.3-0.8-0.4-1.3-0.3-1.5
	s0.1-0.3,0-0.6c-0.3-0.5,0.2-2.6,1.3-5.5c0.6-1.4,0.9-2.1,1-1.8s0.1,0.1,0.1-0.3s-0.1-0.5,0-0.4c0.6-0.8,1.1-1.7,1.6-2.6
	c3.9-7.3,11.8-16.8,21.6-26.2c7-6.6,17-14.7,22.9-18.5c1.2-0.8,1.2-0.9,1.5-2.2c1.1-5.2,1.4-10.5,0.7-15.7l-0.1-0.9l-1,1.7
	c-0.5,1-1.3,2.2-1.7,2.8c-0.3,0.6-0.7,1.2-1.2,1.7c-1,1.1-8.9,11.2-9.8,12.6s-1,1.7-0.6,1.5c0.8-0.5-1,1.9-3.4,4.2
	c-2,2-2.8,2.5-4.6,2.9c-1.3,0.2-2,0.1-2.2-0.5c-0.1-0.2-0.3-0.3-0.6-0.3c-1.2,0.2-2.6-3.4-2.4-6.4c0.1-2.6,2-7.8,4.1-11.8
	c2.2-3.6,4.7-7.1,7.4-10.3c1.8-2,3.8-3.5,4.8-3.6c0.4-0.1,1.1-0.2,1.7-0.3c0.8-0.1,1.6,0,2.3,0.5c2,1.1,2.9,1.8,3.4,2.9l0.4,0.9
	l1-1.2c0.7-0.9,1-1.1,1-0.8s0.3,0.1,1.1-0.7c0.5-0.7,1-1.1,1.2-1s-0.1,0.4-0.3,0.6s-0.3,0.5-0.1,0.5c0.7,0.1,1.4,0.6,1.4,1.2
	c-0.1,0.3,0.1,0.5,0.3,0.5c0.5,0.1,0.7,1,1,3.7c0.6,3.9,0.6,7.8,0.1,11.6c-0.1,1-0.3,1.9-0.3,1.9s0.9-0.4,1.9-0.9
	c0.6-0.4,1.4-0.7,2.1-0.9c0.3,0,0.8-0.1,3.5-1.4c3-1.3,7-2.1,8.5-1.8c1.2,0.2,2.6,1,2.4,1.3c0.1,0.2,0.3,0.4,0.5,0.5
	C693.8,261.6,693.2,261.8,691.1,261.7z M667.9,272.2c-0.2,0.1-0.4,0.2-0.4,0.5c-0.5,0.6-1.1,1.1-1.8,1.6c-1.4,1.1-1.8,1.3-1.9,1
	s-0.2-0.2-0.1,0.1s-0.1,0.5-0.5,0.7c-0.3,0.2-0.5,0.4-0.8,0.6c-0.1,0.1-1.6,1.4-3.3,2.7s-3.4,2.8-3.8,3.2s-2.6,2.4-5,4.5
	c-4.5,4-8.7,8.3-12.8,12.8c-0.6,0.7-1.3,1.4-2,2.1c-0.2,0.2-0.7,0.9-1.3,1.5s-1.5,1.9-2.2,2.8s-1.5,2-1.8,2.4
	c-2.5,3.7-4.6,7.7-6.2,11.8c-0.7,2.1-1.1,4.3-1.2,6.5c0.1,1.3,0.4,1.4,2.2,1.6s2,0.4,0.9,0.7c-0.4,0.1-0.5,0.2-0.3,0.2
	c1.2-0.2,2.3-0.5,3.4-1.1c0.7-0.5,1.1-0.3,0.5,0.2c-0.8,0.7-1.7,1.2-2.7,1.5c-0.8,0.2-0.9,0.3-0.5,0.3c0.7-0.1,1.4-0.2,2.1-0.4
	c2-0.6,3.9-1.4,5.6-2.6c1.3-0.7,2.3-1.3,2.3-1.3c0.9-0.6,1.8-1.2,2.6-1.8c1.9-1.4,3.7-3,5.4-4.6c2.8-2.8,2.2-2.4-1.4,1
	s-9.4,7.1-8.8,5.9c0.1-0.2,0.2-0.3,0.3-0.3c1.7-0.9,3.4-2,5-3.2c3-2.5,5.8-5.2,8.5-8.1c2.4-2.8,4.1-4.9,3.2-4
	c-0.5,0.5-1.5,1.6-2.2,2.4c-1.3,1.6-2.7,3.1-4.3,4.3c-0.1-0.1-0.1-0.2,0.1-0.4c0.2-0.1,0.3-0.3,0.2-0.5c-0.6,0.4-1.1,0.8-1.6,1.4
	c-1.7,1.6-2.7,2.4-2.8,2.2c0.9-1.1,1.9-2.2,3-3.1c2.9-2.7,5.5-5.7,7.7-8.9c3.8-5.7,7.1-11.7,9.8-17.9c3.3-7.4,4.5-10.2,5.2-12.4
	c0.2-0.7,0.7-2.1,1-3.1C668.4,271.9,668.3,272,667.9,272.2L667.9,272.2z M669.2,268.4c-0.2-0.2-2.2,1.1-2.6,1.6
	c-0.1,0.3-0.4,0.4-0.7,0.5c-0.5,0-5.5,3.6-7.3,5.3c-0.4,0.4-0.7,0.6-0.5,0.5s0.1-0.3-0.1-0.2c-0.1,0.1-0.2,0.2-0.2,0.3
	c0.1,0.3-0.4,0.7-0.7,0.6c-0.2,0-0.5,0.2-0.5,0.5c-0.2,0.2-0.3,0.4-0.4,0.3s-1.3,0.7-1.3,1.1s-0.7,0.9-1.1,0.9
	c-0.2,0-0.3,0.1-0.3,0.1c0.2,0.4-9.1,8.7-9.3,8.5c-0.1-0.1-0.1-0.1,0,0c0.2,0.3-0.3,1-0.6,0.9s-2.8,2.4-4,3.8
	c-0.3,0.3-1.3,1.6-2.4,2.8c-3.8,4.3-8,9.4-7.8,9.8c0.1,0.1-0.1,0.6-0.5,1c-0.3,0.3-0.5,0.7-0.6,1c0,0.2,0.1,0.1,1.1-1.4
	c0.8-1,1.9-2.5,4.9-6c0.6-0.7,1.5-1.6,1.9-2.1s2-2,3.3-3.5c5.2-5.5,10.7-10.7,16.4-15.6c2.2-1.8,6.2-4.9,8.6-6.6
	c1.5-1,3.2-2.2,3.8-2.6C669.3,269.1,669.6,268.7,669.2,268.4L669.2,268.4z M633.7,328.9c-0.1,0-0.1,0.1-0.2,0.3s-0.1,0.3,0.1,0.3
	s0.2-0.1,0.2-0.3S633.8,328.9,633.7,328.9L633.7,328.9z M635.1,328.3c-0.2,0-0.3,0.1-0.4,0.2c-0.1,0.1,0,0.3,0.1,0.3
	c0.2,0,0.3-0.1,0.4-0.2C635.3,328.4,635.2,328.3,635.1,328.3L635.1,328.3z M636.7,327.5c-0.2,0.1-0.5,0.2-0.7,0.3
	c-0.2,0.1-0.3,0.3-0.2,0.3c0.2,0,0.4-0.2,0.6-0.3C636.7,327.7,636.8,327.6,636.7,327.5L636.7,327.5z M640.1,325.1
	c-0.6,0.4-1.1,0.8-1.2,0.9c-0.4,0.2-0.7,0.4-1.1,0.7c-0.3,0.2-0.7,0.4-0.9,0.7c0,0.1,0.5-0.1,1.1-0.5s1.3-1,1.8-1.3
	c0.4-0.2,0.7-0.5,1-0.9C641,324.6,640.7,324.7,640.1,325.1L640.1,325.1z M643.2,322.5c-0.1-0.1-0.5,0.3-1,0.8s-0.9,0.9-0.8,1
	c0.4-0.2,0.8-0.5,1.1-0.9C643,323,643.3,322.5,643.2,322.5L643.2,322.5z M645.2,320.8c-0.7,0.4-1.3,0.9-1.8,1.5c0,0.3,0.7-0.3,1.5-1
	C645.4,320.9,645.5,320.6,645.2,320.8L645.2,320.8z M647.4,318.5c-0.9,0.9-1,0.9-0.7,0.9c0.1,0.1,0.5-0.3,0.9-0.7
	C648.6,317.7,648.4,317.6,647.4,318.5L647.4,318.5z M648.4,315.5l0.5-0.7l-0.7,0.6c-0.7,0.7-0.8,0.7-0.5,0.7
	C647.9,316,648.2,315.8,648.4,315.5L648.4,315.5z M662.7,254.4c1-1.1,1.1-1.4,0.9-3.9c-0.1-0.8-0.2-1.6-0.4-2.4
	c-0.3-0.5-5.4,5.1-8.5,9.3c-2.7,3.7-6.1,10.1-6.9,12.8c-0.2,0.6-0.2,0.6,0.3,0.3c0.8-0.7,1.6-1.5,2.3-2.2c0.9-1,2.2-2.5,3-3.2
	s1.8-2,2.6-3s1.7-2,2-2.4c0.9-0.9,1.7-1.8,2.4-2.7C661.5,255.8,662.5,254.6,662.7,254.4L662.7,254.4z M651.1,313.1
	c-0.1,0.1-1,1.1-1.8,2.2c-1.6,2-0.8,1.2,1.3-1.1C651.4,313.1,651.7,312.6,651.1,313.1z M650.4,314.6c-0.1,0-0.2,0.1-0.3,0.3
	s0,0.3,0.1,0.3s0.2-0.1,0.3-0.3C650.5,314.8,650.5,314.7,650.4,314.6L650.4,314.6z M653.7,310.6c-0.3,0.2-0.3-0.3,0-0.7
	c0.1-0.1,0.1-0.1-0.1,0s-0.7,0.8-1.1,1.4c-0.6,0.8-0.7,1.1-0.6,1.3c0.4,0.2,0.4,0.2,0.3-0.1c-0.1-0.2,0-0.5,0.2-0.6
	c0.2-0.2,0.3-0.3,0.4-0.1s0.1,0.2,0.3-0.1s0.1-0.3-0.1-0.2s-0.2,0-0.1-0.2c0.1-0.1,0.2-0.2,0.3-0.3c0.1,0.1,0.3-0.1,0.5-0.3
	S653.9,310.5,653.7,310.6L653.7,310.6z M652.9,308.7c0.1-0.1,0.2-0.2,0.2-0.4c-0.1-0.1-0.2,0.1-0.3,0.3S652.7,309,652.9,308.7
	L652.9,308.7z M657.7,303.5c-0.1-0.1-0.3,0.3-0.6,0.7s-1,1.8-1.7,2.8s-1.2,2-1.2,2.1s0.1,0,0.2-0.1c0.1-0.2,0.3-0.3,0.5-0.3
	c0.2,0,0.3-0.1,0.3-0.4c0-0.2,0.1-0.3,0.3-0.3c0.1,0.1,0.2-0.1,0.3-0.3c0.1-0.3,0.2-0.6,0.5-0.8c0.3-0.3,0.5-0.6,0.5-1
	c0-0.3,0.2-0.5,0.4-0.6c0.2-0.1,0.3-0.4,0.3-0.6c0-0.3,0.1-0.6,0.3-0.8C657.7,303.8,657.7,303.6,657.7,303.5L657.7,303.5z
	 M655.7,304.4c0.1-0.1,0.2-0.3,0.1-0.3s-0.2,0-0.3,0.3S655.4,304.7,655.7,304.4L655.7,304.4z M658.4,302.6c0-0.1-0.1-0.1-0.2-0.1
	s-0.2,0.1-0.2,0.3s0.1,0.2,0.2,0.1C658.3,302.8,658.4,302.8,658.4,302.6L658.4,302.6z M659,298.9c0-0.1-0.1-0.1-0.2,0.1
	c-0.1,0.2-0.2,0.3-0.3,0.5c0,0.1,0.1,0.1,0.2-0.1C658.9,299.3,659,299.2,659,298.9L659,298.9z M661.3,277.1c0.1,0,0.2-0.1,0.4-0.3
	c0.1-0.1,0.1-0.2,0.2-0.3c-0.2,0.1-0.3,0.2-0.4,0.3C661.3,277,661.2,277.1,661.3,277.1L661.3,277.1z M662.3,294.7
	c-0.3,0.5-0.6,1.1-0.8,1.7c0,0.3,0.2-0.1,0.5-0.9C662.2,295.2,662.3,294.8,662.3,294.7L662.3,294.7z M663.5,292.2
	c-0.1-0.1-0.9,1.6-0.9,1.8c0.2-0.2,0.3-0.5,0.5-0.8C663.3,293,663.4,292.6,663.5,292.2L663.5,292.2z M664.5,254.4
	c-0.7,0.6-1.3,1.4-1.8,2.2c0.4-0.4,0.8-0.8,1.1-1.3C664.5,254.7,664.8,254.2,664.5,254.4L664.5,254.4z M664.2,257.4
	c-0.1,0-0.2,0.1-0.4,0.3s-0.2,0.3-0.1,0.3s0.2-0.1,0.3-0.3S664.3,257.5,664.2,257.4L664.2,257.4z M665.1,288.4
	c0-0.1-0.2,0.1-0.4,0.7c-0.7,1.8-0.7,1.9-0.1,0.7C664.9,289.4,665.1,288.9,665.1,288.4L665.1,288.4z M665.8,286.9
	c-0.1-0.1-0.2,0.1-0.3,0.5c-0.3,0.8-0.2,0.9,0.1,0.1C665.9,287.2,666,286.9,665.8,286.9L665.8,286.9z M678.6,262.9
	c-0.4,0.1-0.5,0.3-0.1,0.3c0.1,0,0.2-0.1,0.3-0.2S678.9,262.9,678.6,262.9L678.6,262.9z M680.6,262.1c0-0.1-1.3,0.4-1.4,0.6
	s0.3,0.1,0.8-0.2S680.6,262.2,680.6,262.1L680.6,262.1z M691.4,260.1c-0.4-0.5-3.6-0.5-5.3-0.1c-1.7,0.5-3.3,1.1-4.9,1.8
	c-0.1,0.1,0.2,0.1,0.7-0.1s1.8-0.6,3-1c1.4-0.5,3-0.7,4.5-0.5C690.8,260.4,691.6,260.3,691.4,260.1L691.4,260.1z"/>
<path class="st5" d="M706,253.6c0,0.1,0.3,0.8,0.7,1.6c0.7,1.8,1,3.8,0.8,5.8c0,1.2-0.3,2.4-0.8,3.5c-1.1,2.3-2.6,4.4-4.5,6
	c-1.3,1.3-2.9,2.1-4.6,2.6c-0.8,0.2-1.8,0.5-2,0.6c-0.8,0.3-1.7,0.2-2.4-0.1c-1-0.3-2.6-1.8-2.6-2.5c-0.1-0.3-0.3-0.7-0.6-0.9
	c-1.3-1.6-1.5-6.5-0.5-9.3c1.6-4.3,4.2-8.1,7.6-11.2l1.3-1.1l-0.5-0.7c-0.3-0.3-0.4-0.7-0.3-0.8c0.1-0.3,1.3-0.1,1.9,0.3
	s0.7,0.4,1.2,0.2c0.7-0.3,1.6-0.2,2.2,0.2c0.7,0.3,2,1.8,2,2.2c0,0.6,4,0.9,8.6,0.5c3-0.2,5.9-0.6,8.8-1.2h1.3l0.5,0.1
	c0.1,0,0.2,0,0.3,0.1c0,0,0.1,0,0.1,0.1c0.1,0,0.1,0,0.1,0.1h0l0.1,0.1c-0.2,0-0.3,0.1-0.5,0.1c-0.7,0.1-1.2,0.3-1.1,0.3
	c0.6,0,1.2-0.1,1.7-0.3c0,0,0,0.1,0.1,0.1l0,0c0,0,0,0.1,0.1,0.1c0,0.1,0.1,0.3,0.1,0.3c0,0.1,0,0.2,0.1,0.3c-0.1-0.1,0,0.2,0,0.3
	v0.5c0,0.1,0,0.2-0.1,0.3l-0.1,0.1c0,0.1-0.1,0.1-0.1,0.2s-0.1,0.1-0.1,0.1h-0.1c0,0.1-0.1,0.1-0.1,0.2h-0.1v0.1
	c-6.3,1.4-13,1.9-17.2,1.4C706.9,253.6,706.5,253.5,706,253.6z M704.2,253.8c-0.5-0.8-0.6-0.9-1.2-0.9c-0.3,0-0.6-0.1-0.8-0.2
	c-0.1-0.1-0.3-0.2-0.5-0.3c-0.4,0-0.6-0.4-0.6-0.8c0-0.1,0-0.1,0-0.2c0-0.1,0-0.3-0.1-0.2c-1.1,0.9-2.1,1.9-3,3
	c-0.2,0.3-0.4,0.6-0.7,0.9c-0.9,0.8-3.7,5.6-4.5,7.6c-1,2.4-1.4,5.6-1,7c0.1,0.5,0.2,0.5,1.3,0.5c1.1,0,2.2-0.3,3.2-0.9
	c2.1-0.9,3.9-2.3,5.4-4.1C704.9,262,705.9,256.9,704.2,253.8L704.2,253.8z M722,250.4c0.3,0,0.6-0.1,0.9-0.3
	c0.2-0.1-1.2,0.1-1.4,0.3S721.6,250.5,722,250.4L722,250.4z"/>
<path class="st5" d="M752.8,259.7c-0.3,0.3-0.6,0.7-0.7,1.1c0,0.3-0.2,0.6-0.3,0.6c-0.1,0-0.2,0.1-0.2,0.2c-0.5,0.8-1.2,1.5-1.8,2.2
	c-0.7,0.7-1.3,1.4-1.9,2.2c-0.9,1.2-2.1,2.3-3.3,3.2c-0.1-0.1-0.2,0.1-0.2,0.2c0,0.8-4.6,4.1-7.4,5.3s-4.5,1.3-6.3,0.5
	c-0.8-0.3-1.8-1.3-1.9-1.8c-0.1-0.3-0.3-0.5-0.5-0.7c-0.8-0.9-1.3-2.1-1.2-3.3c0-1.3,0.3-2.6,0.7-3.8c0.1-0.2,0.4-1,0.7-1.8
	c1.1-2.9,2.3-5.7,3.6-8.5l0.9-1.8l-0.7,0.5c-0.6,0.4-1,0.9-1.5,1.4c-0.5,0.9-0.8,1.1-1.3,1.2s-1.1,0.6-2.6,2.1
	c-0.7,0.7-1.4,1.4-2.2,1.9c-0.2,0-0.3,0.2-0.3,0.3c0,0.4-0.7,1.5-0.7,1c0-0.1-0.2,0.1-0.4,0.5s-1,1.3-1.7,2.2s-2.4,3-3.6,4.6
	c-2.8,3.7-3.2,4.2-4.9,5.6s-2.2,1.6-3,1.2c-0.3-0.2-0.6-0.4-0.9-0.6c-0.1-0.2-0.2-0.3-0.4-0.3c-0.3,0-0.4-0.7-0.2-0.9
	s0.1-0.2-0.1-0.3c-1.1-0.9-1.2-2.6-0.1-4.9c0.4-0.7,0.7-1.4,0.8-1.4s0.3,0-0.4,1.4s-1,3.1-0.7,3.5c0.1,0.2,0.2,0.2,0.2-0.1
	c0.1-0.4,0.2-0.8,0.4-1.3c0.3-0.4,0.4-0.8,0.3-1.3c-0.1-0.3,0-0.7,0.8-1.7c0.9-1.3,1.1-1.8,0.5-1.3c-0.2,0.1-0.3,0.1-0.3,0
	s0.1-0.2,0.2-0.2c0.2-0.2,0.4-0.5,0.6-0.8c0.2-0.5,0.5-1,0.9-1.4c0.7-0.9,1.3-1.8,1.9-2.7c0.9-1.4,1.9-2.8,3-4.1
	c0.1-0.1,0.2-0.3,0.3-0.5c0.3-0.6,0.6-1.2,1-1.7c0.4-0.5,0.8-1,1.1-1.5c-0.1-0.2,1.6-2.2,3.7-4.5c0.7-0.8,1.5-1.6,2.4-2.2
	c0.5-0.1,0.9-0.4,1.3-0.7c0.8-1,2.2-1.3,3.4-0.9c0.5,0.1,0.9,0.3,1.3,0.5c0.3,0.3,0.6,0.5,0.9,0.7c0.5,0.4,0.9,1,1.2,1.6
	c0.2,0.5,0.5,0.9,0.8,1.3c0.2,0.2,0.5,0.4,0.7,0.6c0.2,0.2,0.4,0.4,0.7,0.5c0.4,0,0.9,1.3,0.9,2.2c-0.1,1-0.3,2-0.7,2.9
	c-0.4,1-1,2.7-1.3,3.7s-1.2,3.2-1.8,4.9c-1.4,3.4-2,5.5-2,7.1c0,1,0,1.2,0.5,1.3c1.1,0.1,2.3-0.1,3.3-0.7c3.4-1.6,6.6-3.7,9.4-6.3
	c1-0.9,1.7-1.3,1.8-1.2s0.8-0.5,2-1.6c1.3-1.3,1.9-1.8,2-1.6s-0.1,0.5-0.3,0.7c-0.2,0.2-0.3,0.4-0.4,0.6c0.4-0.3,0.9-0.7,1.3-1
	c0.4-0.5,0.9-0.9,1.5-1.3c0.2-0.1,0.4-0.2,0.5-0.4c0.2-0.6,0.7-1.1,1.3-1.3C753.5,258.9,753.4,259.1,752.8,259.7z M729.6,249.1
	c-1.2,0.8-2.4,1.7-3.4,2.8c-0.4,0.5-0.7,0.5-0.5,0.1c0.1-0.2,0.1-0.3-0.1-0.2s-0.2,0.3-0.2,0.5c0,0.4-0.7,1.3-3,3.7
	c-1.1,1.1-2.1,2.4-3,3.6c-1,1.3-1.9,2.5-2,2.7c-1.4,2.1-2.7,4.2-3.8,6.5c0,0.3,0.4-0.1,2.2-2.2c3.5-4.2,4.3-5.1,4.3-4.3
	c0,0.1,0.1,0.1,0.1-0.1c0.1-0.2,0.1-0.4,0-0.6c0.4-0.8,1-1.6,1.7-2.2c1.7-1.8,1.9-2,2.4-2s0.5,0,0.3-0.3s-0.1-0.5,1.6-2.2
	c1.2-1,2.1-2.3,2.7-3.8C729.3,250,729.6,249.1,729.6,249.1z M714.6,261.9c0,0.3,0.2,0.2,0.5-0.2c0.1-0.2,0.2-0.4,0.1-0.5
	s-0.2,0-0.2,0.2s-0.1,0.3-0.2,0.3S714.6,261.9,714.6,261.9z M724.8,258c-1.3,1.3-2.5,2.6-3.7,4.1c0.1,0,1.1-1.1,2.3-2.4
	c1.5-1.6,2.3-2.4,2.6-2.4s0.3-0.1,0.3-0.2c0-0.3,0.2-0.5,0.3-0.7C725.9,256.8,725.3,257.4,724.8,258L724.8,258z M723.5,260.6
	c-0.1-0.3-0.1-0.3-0.3-0.1s-0.2,0.2,0,0.5S723.6,261,723.5,260.6L723.5,260.6z"/>
<path class="st5" d="M782,263.9c-0.7,0.8-1,0.3-0.4-0.7l0.5-0.8l-0.6,0.5c-0.7,0.8-1.3,1.7-1.8,2.6c-3.4,4.8-7.1,9.3-11,13.7
	c-0.6,0.4-1.1,1-1.4,1.6c-0.1,0.3-0.2,0.6-0.4,0.8c-0.1,0.2-0.2,0.4-0.1,0.4c1-0.7,2-1.5,2.8-2.4c1.6-1.7,3.8-4.2,4.8-5.5
	c3.5-4.8,6.2-8,6.2-7.7c-0.3,0.8-0.8,1.5-1.3,2.2c-0.7,1-1.6,2.4-2.1,3.1c-2.3,3.2-4.7,6.3-7.4,9.3c-1.5,1.6-4.7,4.5-6.1,5.8
	c-1.8,1.6-3.8,2.9-6,3.9c-0.3,0.1-0.9,0.3-1.3,0.5c-0.8,0.3-1.7,0.4-2.5,0.4c-1.1,0.2-2.2,0-3.1-0.5c-2.5-1-4.4-3-5.5-5.5
	c-0.2-0.7-0.5-1.3-0.8-2c-0.9-1.9-1.1-5.2-0.5-8.5c1.3-6.7,3.4-13.3,6.1-19.6c0.3-0.8,0.7-1.5,0.7-1.6c-0.1-0.6,5.1-10.4,7-13.5
	c0.7-1.2,1.5-2.6,1.7-3c0.8-1.5,15.2-23.8,25.3-28.8c1.4-0.6,3-0.2,4,1c1.3,1.9,1.3,2.2,1.2,3.3c-0.2,1.4-0.6,2.4-2.1,5.7
	c-2.1,4.5-8.5,16.3-10.5,19.4c-0.1,0.1-0.9,1.5-1.8,3s-2.2,3.6-3,4.7s-2,3-2.6,4c-3.9,5.9-11.2,15.1-14.4,18.4
	c-1.7,1.8-4.3,3.2-5.6,3c-0.6-0.1-0.6-0.1-1.1,1.6c-0.3,0.9-0.7,3-1.1,4.6c-0.8,4.8-0.5,7.6,1,9.8c0.3,0.6,0.9,1,1.5,1
	c0.6,0.1,1.3,0.1,1.7,0.1c1.5-0.1,4.7-1.5,7.4-3.4c3.8-3,7.2-6.4,10.3-10.1c2.1-2.4,2.8-3.2,3.1-3.3c0.8-0.4,1.4-1,1.8-1.8
	c0.5-0.7,1.1-1.3,1.7-1.9c2.1-2.4,4.1-4.9,5.9-7.6c0.4-0.6,0.8-1.3,1.3-1.8c0.5-0.5,0.6,0.2,0.1,1s-0.5,0.9-0.1,0.7
	C784.5,259.1,783.3,262.4,782,263.9z M745.9,274.2c-0.1-0.2-0.2,0.1-0.3,0.7c-0.1,0.5-0.2,1-0.3,1.5c0,0.2,0.1-0.2,0.3-0.8
	S745.9,274.3,745.9,274.2L745.9,274.2z M746.9,269.8c-0.1,0.2-0.2,0.4-0.2,0.7c0,0.1-0.2,0.9-0.4,1.6c-0.4,1.3-0.5,2-0.3,1.8
	c0.1-0.1,0.3-1.1,0.7-2.3S747,269.5,746.9,269.8L746.9,269.8z M747.6,264.6c0.1,0.3,1-1.6,1.3-2.4c0.2-0.7,0.4-1.4,0.7-2.1
	c0.3-0.8,0.8-2,1.1-2.6s0.7-1.7,0.8-2.2c0.3-0.6,0.6-1.2,0.9-1.9c0.3-0.5,1-2.1,1.7-3.6s1.4-2.8,1.5-3.2s0.8-1.5,1.4-2.6
	c0.4-0.7,0.8-1.4,1.2-2.1c0.1-0.3,0.3-0.6,0.5-0.8c0.3-0.2,0.5-0.5,0.6-0.9c-0.1-0.2,0.6-1.1,0.8-1.1s0.3-0.2,0.5-0.4
	s0.2-0.3-0.1-0.1s-0.3,0.3-0.3,0s0.1-0.5,0.2-0.5c0.3-0.4,0.5-0.8,0.8-1.2c0.7-1.2,1.5-2.3,2.3-3.4c0.6-0.8,1.2-1.6,1.8-2.5
	c0.1-0.3,0.3-0.6,0.5-0.8c0.2-0.4,0.3-0.7,0.3-0.7s-3.3,4.6-5.1,7.3c-3.9,6.2-7.3,12.7-10.2,19.4
	C749.5,259.1,747.6,264.3,747.6,264.6L747.6,264.6z M750.5,259.5c0.7-1.8,1.2-3.2,1.1-3.1s-2.6,6.3-2.7,6.8S749.4,262.4,750.5,259.5
	L750.5,259.5z M767,233.9c-0.9,1.1-4,5.8-5.3,8c-2.7,4.7-5.1,9.3-5.3,9.9s-0.7,2-2.5,5.8c-0.6,1.5-3.2,8.3-3.4,9.1
	c-0.1,0.5-0.1,0.5,0.9-0.3c2.8-2.4,6.9-7.3,11.7-13.9c1.7-2.3,3.4-4.7,3.9-5.3s1.2-1.7,1.8-2.6c0.6-1,1.3-2.1,2.1-3
	c1.2-1.4,1.9-2.6,5-7.8c2.8-4.7,4.9-8.4,7.1-12.6c2.3-4.5,2.5-5,2.4-5.2s0-0.3,0.1-0.4c0.7-1,1.1-2.2,1.2-3.4l0.2-1.4l-0.7,0.5
	c-0.4,0.3-0.8,0.6-1.2,0.9c-0.3,0.3-1.1,1-1.8,1.6c-2.4,2.3-4.7,4.6-6.9,7.2C775.1,222.7,767.3,233.6,767,233.9z M752,255.8
	c0.1-0.2,0.1-0.3-0.1-0.2c-0.1,0.1-0.2,0.2-0.2,0.3C751.8,256.2,751.9,256.1,752,255.8L752,255.8z M752.2,255.1
	c0.2-0.3,0.4-0.7,0.6-1.1c0.2-0.5,0.3-0.7,0.1-0.5C752.5,254,752,255.5,752.2,255.1L752.2,255.1z M753.8,251.7
	c0.1-0.2,0.2-0.3,0.3-0.5c0.2-0.4,0.2-0.4-0.1-0.1s-0.3,0.4-0.3,0.5V251.7z M756.1,247.1l0.3-0.6l-0.4,0.4c-0.2,0.2-0.3,0.4-0.3,0.7
	C755.7,247.9,755.8,247.7,756.1,247.1L756.1,247.1z M756.5,246.4c0.1,0,0.4-0.5,0.7-1.1s0.5-1,0.3-1S756.3,246.4,756.5,246.4
	L756.5,246.4z M758.2,243.7c0.2-0.5,0.5-1,0.8-1.5c0.3-0.6,0.6-1,0.5-1s-0.2,0.1-0.2,0.1c-0.2,0.4-0.4,0.7-0.6,1
	c-0.3,0.4-0.5,0.8-0.7,1.3C757.9,244,757.9,244,758.2,243.7L758.2,243.7z M759.9,240.6c0.1-0.2,0-0.3-0.1-0.2
	c-0.1,0.1-0.1,0.2-0.2,0.3C759.7,241,759.7,240.9,759.9,240.6L759.9,240.6z M760.9,238.5c0.1-0.2,0.2-0.3,0.3-0.5
	c0.3-0.4,0.2-0.4-0.1-0.1c-0.2,0.1-0.3,0.3-0.3,0.5C760.8,238.4,760.8,238.5,760.9,238.5L760.9,238.5z M766.5,232.6
	c0.2-0.1,0.3-0.3,0.4-0.5c0-0.3-0.1-0.2-0.5,0.3S766.1,232.9,766.5,232.6L766.5,232.6z M780.8,229.7c-0.2,0.1-0.6,1-0.5,1
	c0.2-0.2,0.3-0.4,0.4-0.6C780.8,229.8,780.9,229.6,780.8,229.7L780.8,229.7z"/>
<path class="st5" d="M786.4,281h4.6c0.3,0,0.6,0.2,0.7,0.5c0,0.1,0,0.1,0,0.2v6.2c0,0.3,0,0.6-0.1,0.8c-0.1,0.2-0.2,0.4-0.3,0.6
	l-4.1,5.4c-0.2,0.3-0.5,0.4-0.9,0.5c-0.3,0-0.5-0.2-0.6-0.4c0-0.1,0-0.1,0-0.2v-12.9c0-0.3,0.2-0.6,0.5-0.7
	C786.2,281,786.3,281,786.4,281z"/>
<path class="st5" d="M827.6,286.5c-2.8,0.1-5.5-0.7-7.9-2.2c-2.2-1.5-3.8-3.7-4.6-6.3c-0.4-1.1-0.6-2.3-0.8-3.5
	c-0.2-1.5-0.3-3-0.3-4.6c0-1.5,0.1-3,0.3-4.5c0.2-1.2,0.4-2.3,0.8-3.4c0.8-2.6,2.4-4.8,4.6-6.3c4.8-2.9,10.9-2.9,15.7,0
	c2.2,1.5,3.8,3.7,4.6,6.3c0.4,1.1,0.6,2.3,0.8,3.4c0.2,1.5,0.3,3,0.3,4.5c0,1.5-0.1,3.1-0.3,4.6c-0.2,1.2-0.4,2.3-0.8,3.5
	c-0.8,2.5-2.4,4.7-4.6,6.3C833.1,285.8,830.4,286.6,827.6,286.5z M827.6,281.4c1.6,0,3.2-0.4,4.5-1.3c1.3-0.9,2.2-2.2,2.6-3.6
	c0.3-0.9,0.5-1.8,0.6-2.7c0.1-1.2,0.2-2.5,0.2-3.7c0-1.2,0-2.5-0.2-3.7c-0.1-0.9-0.3-1.8-0.6-2.7c-0.5-1.5-1.4-2.8-2.6-3.6
	c-2.7-1.7-6.2-1.7-8.9,0c-1.3,0.9-2.2,2.2-2.6,3.6c-0.3,0.9-0.4,1.8-0.5,2.7c-0.1,1.2-0.2,2.5-0.2,3.7c0,1.2,0,2.5,0.2,3.7
	c0.1,0.9,0.3,1.8,0.5,2.7c0.5,1.5,1.4,2.8,2.6,3.6C824.4,281,826,281.5,827.6,281.4z"/>
<path class="st5" d="M869.7,285.9c-0.3,0-0.6-0.2-0.7-0.5c0-0.1,0-0.1,0-0.2v-3H869c-0.8,1.3-2,2.4-3.4,3.2
	c-1.6,0.8-3.4,1.2-5.2,1.2c-3.5,0-6.2-1.1-8.1-3.3c-2-2.4-3-5.5-2.9-8.6V255c0-0.3,0.2-0.6,0.5-0.7c0.1,0,0.1,0,0.2,0h4.2
	c0.3,0,0.6,0.2,0.7,0.5c0,0.1,0,0.1,0,0.2v18.4c-0.1,2.1,0.5,4.3,1.7,6c1.3,1.5,3.3,2.3,5.3,2.1c1.9,0.1,3.8-0.7,5.2-2.1
	c1.4-1.6,2-3.6,1.9-5.6V255c0-0.3,0.2-0.6,0.5-0.7c0.1,0,0.1,0,0.2,0h4.2c0.3,0,0.6,0.2,0.7,0.5c0,0.1,0,0.1,0,0.2v30.2
	c0,0.3-0.2,0.6-0.5,0.7c-0.1,0-0.1,0-0.2,0L869.7,285.9z"/>
<path class="st5" d="M886,285.9c-0.3,0-0.6-0.2-0.7-0.5c0-0.1,0-0.1,0-0.2V255c0-0.3,0.2-0.6,0.5-0.7c0.1,0,0.1,0,0.2,0h4.2
	c0.3,0,0.6,0.2,0.7,0.5c0,0.1,0,0.1,0,0.2v3.2h0.1c0.7-1.4,1.8-2.5,3.1-3.3c1.6-0.9,3.4-1.3,5.2-1.3c1.2,0,2.4,0.2,3.6,0.6
	c1.1,0.4,2,1,2.9,1.7c0.3,0.2,0.4,0.6,0.1,0.9c0,0,0,0,0,0l-2.4,3.2c-0.2,0.3-0.5,0.4-0.8,0.2c0,0-0.1-0.1-0.1-0.1
	c-0.7-0.5-1.5-0.8-2.3-1.1c-0.8-0.3-1.7-0.4-2.6-0.4c-2.1-0.2-4.1,0.8-5.2,2.5c-1.1,2-1.7,4.3-1.6,6.7v17.2c0,0.3-0.2,0.6-0.5,0.7
	c-0.1,0-0.1,0-0.2,0L886,285.9z"/>
<path class="st5" d="M967.9,261.7c-1.5-0.1-3,0.2-4.4,0.8c-5.1,1.9-13.8,6.5-14.1,7.6c-0.1,0.3-0.5,1.5-0.8,2.6
	c-2.7,9.9-6.5,19.5-11.1,28.7c-3.2,6.6-7.5,12.6-12.6,17.8c-1.8,1.8-6.7,6-8.4,7.3c-1.6,1.2-3.2,2.3-4.8,3.3
	c-4.9,2.8-7.6,3.5-10,2.3c-0.4-0.2-0.9-0.4-1.4-0.5c-0.9-0.1-2.8-3.2-2.8-4.5c0-0.6-0.2-1.2-0.4-1.7c-0.3-0.8-0.4-1.3-0.3-1.5
	s0.1-0.3,0-0.6c-0.3-0.5,0.2-2.6,1.3-5.5c0.6-1.4,0.8-2.1,1-1.8s0.1,0.1,0.1-0.3s-0.1-0.5,0-0.4c0.6-0.8,1.1-1.7,1.6-2.6
	c4-7.3,11.8-16.8,21.6-26.2c7-6.6,17-14.7,23-18.5c1.2-0.8,1.2-0.9,1.5-2.2c1.1-5.2,1.4-10.5,0.7-15.7l-0.1-0.9l-1,1.7
	c-0.5,1-1.3,2.2-1.7,2.8c-0.3,0.6-0.7,1.2-1.2,1.7c-1,1.1-8.9,11.2-9.8,12.6s-1,1.7-0.6,1.5c0.8-0.5-1,1.9-3.4,4.2
	c-2,2-2.8,2.5-4.6,2.9c-1.3,0.2-2,0.1-2.2-0.5c-0.1-0.2-0.3-0.3-0.6-0.3c-1.2,0.2-2.6-3.4-2.4-6.4c0.1-2.6,2-7.8,4.1-11.8
	c2.2-3.6,4.7-7.1,7.4-10.3c1.8-2,3.7-3.5,4.8-3.6c0.4-0.1,1.1-0.2,1.7-0.3c0.9-0.1,1.1-0.1,2.3,0.5c2,1.1,2.9,1.8,3.3,2.9l0.4,0.9
	l1.1-1.2c0.7-0.9,1-1.1,1-0.8s0.3,0.1,1.1-0.7c0.5-0.7,1-1.1,1.2-1s-0.1,0.4-0.3,0.6s-0.3,0.5-0.1,0.5c0.7,0.1,1.4,0.6,1.4,1.2
	c-0.1,0.3,0.1,0.5,0.3,0.5c0.5,0.1,0.7,1,1.1,3.7c0.6,3.9,0.6,7.8,0.1,11.6c-0.1,1-0.3,1.9-0.3,1.9s0.9-0.4,1.9-0.9
	c0.7-0.4,1.4-0.7,2.1-0.9c0.3,0,0.8-0.1,3.5-1.4c3-1.3,7-2.1,8.5-1.8c1.2,0.2,2.6,1,2.4,1.3c0.1,0.2,0.3,0.4,0.5,0.5
	C970.6,261.6,970,261.8,967.9,261.7z M944.7,272.2c-0.2,0.1-0.4,0.2-0.4,0.5c-0.5,0.6-1.1,1.1-1.8,1.6c-1.4,1.1-1.8,1.3-1.9,1
	s-0.2-0.2-0.1,0.1s-0.1,0.5-0.5,0.7c-0.3,0.2-0.5,0.4-0.8,0.6c-0.1,0.1-1.6,1.4-3.3,2.7s-3.4,2.8-3.8,3.2s-2.6,2.4-5,4.5
	c-4.2,3.8-9.4,9-12.8,12.8c-0.6,0.7-1.3,1.4-2,2.1c-0.2,0.2-0.7,0.9-1.3,1.5s-1.5,1.9-2.2,2.8s-1.5,2-1.8,2.4
	c-2.5,3.7-4.6,7.7-6.2,11.8c-0.7,2.1-1.1,4.3-1.2,6.5c0.1,1.3,0.4,1.4,2.2,1.6s2,0.4,0.9,0.7c-0.4,0.1-0.5,0.2-0.3,0.2
	c1.2-0.2,2.3-0.5,3.4-1.1c0.7-0.5,1-0.3,0.5,0.2c-0.7,0.7-1.7,1.2-2.7,1.5c-0.8,0.2-0.9,0.3-0.5,0.3c0.7-0.1,1.4-0.2,2.1-0.4
	c2-0.6,3.9-1.5,5.6-2.6c1.2-0.7,2.3-1.3,2.3-1.3c0.9-0.6,1.8-1.2,2.6-1.8c1.9-1.4,3.7-3,5.4-4.6c2.8-2.8,2.2-2.4-1.5,1
	s-9.4,7.1-8.8,5.9c0.1-0.2,0.2-0.3,0.3-0.3c1.7-1,3.4-2,5-3.2c3-2.5,5.8-5.2,8.5-8.1c2.4-2.8,4.1-4.9,3.2-4
	c-0.5,0.5-1.5,1.6-2.2,2.4c-1.3,1.6-2.7,3-4.3,4.3c-0.1-0.1-0.1-0.2,0.1-0.4s0.3-0.3,0.2-0.5c-0.6,0.4-1.1,0.8-1.6,1.4
	c-1.6,1.6-2.7,2.4-2.8,2.2c0.9-1.1,1.9-2.2,3-3.1c2.9-2.7,5.5-5.7,7.7-8.9c3.8-5.7,7.1-11.6,9.8-17.9c3.4-7.4,4.5-10.2,5.2-12.4
	c0.2-0.7,0.7-2.1,1-3.1C945.2,271.9,945.2,272,944.7,272.2z M946,268.4c-0.2-0.2-2.2,1.1-2.6,1.6c-0.1,0.3-0.4,0.4-0.7,0.5
	c-0.5,0-5.5,3.6-7.3,5.3c-0.4,0.4-0.7,0.6-0.5,0.5s0.1-0.3-0.1-0.2c-0.1,0.1-0.2,0.2-0.2,0.3c0.1,0.3-0.4,0.7-0.7,0.6
	c-0.2,0-0.4,0.2-0.5,0.5c-0.2,0.2-0.3,0.4-0.4,0.3s-1.3,0.7-1.3,1.1s-0.7,0.9-1.1,0.9c-0.2,0-0.3,0.1-0.3,0.1
	c0.2,0.4-9.1,8.7-9.3,8.5c-0.1-0.1-0.1-0.1,0,0c0.2,0.3-0.3,1-0.6,0.9s-2.8,2.4-4,3.8c-0.3,0.3-1.3,1.6-2.4,2.8
	c-3.8,4.3-8,9.4-7.8,9.8c0.1,0.1-0.1,0.6-0.5,1c-0.3,0.3-0.5,0.7-0.6,1c0,0.2,0.1,0.1,1.1-1.4c0.8-1,1.9-2.5,4.9-6
	c0.6-0.7,1.4-1.6,1.9-2.1s2-2,3.3-3.5c3.7-4,11.1-11,16.4-15.6c2.2-1.8,6.3-4.9,8.6-6.6c1.5-1,3.2-2.2,3.8-2.6
	C946.1,269.1,946.4,268.7,946,268.4z M910.6,328.9c-0.1,0-0.1,0.1-0.2,0.3s-0.1,0.3,0.1,0.3s0.2-0.1,0.2-0.3
	S910.6,328.9,910.6,328.9z M912,328.3c-0.2,0-0.3,0.1-0.4,0.2c-0.1,0.1,0,0.3,0.1,0.3c0.2,0,0.3-0.1,0.4-0.2
	C912.1,328.4,912,328.3,912,328.3L912,328.3z M913.5,327.5c-0.2,0.1-0.5,0.2-0.7,0.3c-0.2,0.1-0.3,0.3-0.2,0.3
	c0.2,0,0.4-0.2,0.6-0.3C913.5,327.7,913.6,327.6,913.5,327.5L913.5,327.5z M917,325.1c-0.6,0.4-1.1,0.8-1.2,0.9
	c-0.3,0.2-0.7,0.4-1,0.7c-0.4,0.2-0.7,0.4-0.9,0.7c0,0.1,0.5-0.1,1-0.5s1.3-1,1.8-1.3c0.4-0.2,0.7-0.5,1.1-0.9
	C917.9,324.6,917.6,324.7,917,325.1L917,325.1z M920.1,322.5c-0.1-0.1-0.5,0.3-1.1,0.8s-0.8,0.9-0.8,1c0.4-0.2,0.8-0.5,1.1-0.9
	C919.6,323.2,919.9,322.9,920.1,322.5L920.1,322.5z M922.1,320.8c-0.7,0.4-1.3,0.9-1.8,1.5c0,0.3,0.7-0.3,1.5-1
	C922.2,320.9,922.3,320.6,922.1,320.8L922.1,320.8z M924.2,318.5c-0.9,0.9-1,0.9-0.7,0.9c0.1,0.1,0.5-0.3,0.8-0.7
	C925.4,317.7,925.2,317.6,924.2,318.5L924.2,318.5z M925.2,315.5l0.5-0.7l-0.7,0.6c-0.7,0.7-0.8,0.7-0.5,0.7
	C924.8,316,925,315.8,925.2,315.5L925.2,315.5z M939.6,254.3c1.1-1.1,1.1-1.4,0.9-3.9c-0.1-0.8-0.2-1.6-0.4-2.4
	c-0.3-0.5-5.4,5.1-8.5,9.3c-2.7,3.7-6.1,10.1-6.9,12.8c-0.2,0.6-0.2,0.6,0.3,0.3c0.8-0.7,1.6-1.5,2.3-2.2c0.9-1,2.2-2.5,3-3.2
	s1.8-2,2.6-3s1.6-2,2-2.4c0.9-0.9,1.7-1.8,2.4-2.7C938.3,255.8,939.3,254.6,939.6,254.3z M927.9,313.1c-0.1,0.1-1,1.1-1.8,2.2
	c-1.6,2-0.8,1.2,1.3-1.1C928.3,313.1,928.5,312.6,927.9,313.1z M927.3,314.6c-0.1,0-0.2,0.1-0.3,0.3s0,0.3,0.1,0.3s0.2-0.1,0.3-0.3
	C927.3,314.8,927.3,314.7,927.3,314.6L927.3,314.6z M930.5,310.6c-0.3,0.2-0.3-0.3,0-0.7c0.1-0.1,0.1-0.1-0.1,0s-0.7,0.8-1.1,1.4
	c-0.6,0.8-0.7,1.1-0.6,1.3c0.4,0.2,0.4,0.2,0.3-0.1c-0.1-0.2,0-0.4,0.2-0.6c0.2-0.2,0.3-0.3,0.4-0.1s0.1,0.2,0.3-0.1
	s0.1-0.3-0.1-0.2s-0.2,0-0.1-0.2c0.1-0.1,0.2-0.2,0.3-0.3c0.1,0.1,0.3-0.1,0.5-0.3S930.7,310.5,930.5,310.6L930.5,310.6z
	 M929.8,308.7c0.1-0.1,0.2-0.2,0.2-0.4c-0.1-0.1-0.2,0.1-0.3,0.3S929.6,309,929.8,308.7L929.8,308.7z M934.5,303.5
	c-0.1-0.1-0.3,0.3-0.6,0.7s-1,1.8-1.7,2.8s-1.3,2-1.3,2.1s0.1,0,0.2-0.1c0.1-0.2,0.3-0.3,0.5-0.3c0.2,0,0.3-0.1,0.3-0.4
	c0-0.2,0.1-0.3,0.3-0.3c0.1,0.1,0.2-0.1,0.3-0.3c0.1-0.3,0.2-0.6,0.5-0.8c0.3-0.3,0.4-0.6,0.5-1c0-0.3,0.2-0.5,0.4-0.6
	c0.2-0.1,0.3-0.4,0.3-0.6c0-0.3,0.1-0.6,0.3-0.8C934.6,303.8,934.6,303.6,934.5,303.5L934.5,303.5z M932.5,304.4
	c0.1-0.1,0.2-0.3,0.1-0.3s-0.2,0-0.3,0.3S932.3,304.7,932.5,304.4L932.5,304.4z M935.2,302.6c0-0.1-0.1-0.1-0.2-0.1
	s-0.2,0.1-0.2,0.3s0.1,0.2,0.2,0.1C935.1,302.8,935.2,302.8,935.2,302.6L935.2,302.6z M935.9,298.9c0-0.1-0.1-0.1-0.2,0.1
	c-0.1,0.2-0.2,0.3-0.3,0.5c0,0.1,0.1,0.1,0.2-0.1C935.7,299.3,935.8,299.2,935.9,298.9L935.9,298.9z M938.1,277.1
	c0.1,0,0.2-0.1,0.4-0.3s0.2-0.3,0.2-0.3c-0.2,0.1-0.3,0.2-0.4,0.3C938.1,277,938.1,277.1,938.1,277.1L938.1,277.1z M939.1,294.7
	c-0.3,0.5-0.6,1.1-0.8,1.7c0,0.3,0.2-0.1,0.5-0.9C939,295.2,939.2,294.8,939.1,294.7L939.1,294.7z M940.3,292.2
	c-0.1-0.1-0.8,1.6-0.8,1.8c0.2-0.2,0.3-0.5,0.5-0.8C940.1,293,940.3,292.6,940.3,292.2L940.3,292.2z M941.3,254.4
	c-0.7,0.6-1.3,1.4-1.8,2.2c0.4-0.4,0.8-0.8,1.1-1.3C941.3,254.7,941.6,254.2,941.3,254.4L941.3,254.4z M941,257.4
	c-0.1,0-0.2,0.1-0.4,0.3s-0.2,0.3-0.1,0.3s0.2-0.1,0.3-0.3S941.1,257.5,941,257.4L941,257.4z M941.9,288.4c0-0.1-0.2,0.1-0.4,0.7
	c-0.7,1.8-0.7,1.9-0.1,0.7C941.7,289.4,941.9,288.9,941.9,288.4L941.9,288.4z M942.7,286.9c-0.1-0.1-0.2,0.1-0.3,0.5
	c-0.3,0.8-0.2,0.9,0.1,0.1C942.7,287.2,942.8,286.9,942.7,286.9L942.7,286.9z M955.4,262.9c-0.4,0.1-0.5,0.3-0.1,0.3
	c0.1,0,0.2-0.1,0.3-0.2S955.7,262.9,955.4,262.9L955.4,262.9z M957.4,262.1c0-0.1-1.3,0.4-1.5,0.6s0.3,0.1,0.8-0.2
	S957.5,262.2,957.4,262.1L957.4,262.1z M968.2,260.1c-0.4-0.5-3.6-0.5-5.3-0.1c-1.7,0.5-3.3,1.1-4.9,1.8c-0.1,0.1,0.2,0.1,0.7-0.1
	s1.8-0.6,3-1c1.4-0.5,3-0.7,4.5-0.5C967.6,260.4,968.4,260.3,968.2,260.1L968.2,260.1z"/>
<path class="st5" d="M982.8,253.6c0,0.1,0.3,0.8,0.7,1.6c0.7,1.8,1,3.8,0.8,5.8c0,1.2-0.3,2.4-0.8,3.5c-1.1,2.3-2.6,4.4-4.5,6
	c-1.3,1.3-2.9,2.1-4.6,2.6c-0.9,0.2-1.8,0.5-2,0.6c-0.8,0.3-1.7,0.2-2.4-0.1c-1-0.3-2.6-1.8-2.6-2.5c-0.1-0.3-0.3-0.7-0.6-0.9
	c-1.3-1.6-1.5-6.5-0.5-9.3c1.6-4.3,4.2-8.1,7.6-11.2l1.3-1.1l-0.5-0.7c-0.3-0.3-0.4-0.7-0.3-0.8c0.1-0.3,1.3-0.1,1.9,0.3
	s0.7,0.4,1.2,0.2c0.7-0.3,1.6-0.2,2.2,0.2c0.7,0.3,2,1.8,2,2.2c0,0.6,4,0.9,8.6,0.5c3-0.2,5.9-0.6,8.8-1.2h1.3l0.5,0.1
	c0.1,0,0.2,0,0.3,0.1c0,0,0.1,0,0.1,0.1c0.1,0,0.1,0,0.1,0.1h0.1c0,0,0.1,0.1,0.1,0.1c-0.2,0-0.3,0.1-0.5,0.1
	c-0.7,0.1-1.2,0.3-1.1,0.3c0.5,0,1.1,0,1.6-0.2c0,0,0,0.1,0.1,0.1l0,0c0,0.1,0.1,0.1,0.1,0.1s0.1,0.3,0.1,0.3c0,0.1,0,0.2,0.1,0.3
	c-0.1-0.1,0,0.2,0,0.3v0.5c0,0.1-0.1,0.3-0.1,0.3l-0.1,0.1c0,0.1-0.1,0.1-0.1,0.2s-0.1,0.1-0.1,0.1h-0.1c0,0.1-0.1,0.1-0.1,0.2h-0.1
	v0.1c-6.3,1.4-13,1.9-17.2,1.4C983.7,253.6,983.3,253.5,982.8,253.6z M981,253.8c-0.5-0.8-0.6-0.9-1.2-0.9c-0.3,0-0.6-0.1-0.8-0.2
	c-0.1-0.1-0.3-0.2-0.5-0.3c-0.4,0-0.6-0.4-0.6-0.7c0-0.1,0-0.1,0.1-0.2c0-0.1,0-0.3-0.1-0.2c-1.1,0.9-2.1,1.9-3,3
	c-0.2,0.3-0.4,0.6-0.7,0.9c-1.8,2.3-3.3,4.9-4.5,7.6c-1,2.4-1.5,5.6-1,7c0.1,0.5,0.2,0.5,1.3,0.5c1.1-0.1,2.2-0.3,3.2-0.9
	c2.1-0.9,3.9-2.3,5.3-4.1C981.7,262,982.8,256.9,981,253.8L981,253.8z M998.8,250.4c0.3,0,0.6-0.1,0.8-0.3c0.2-0.1-1.2,0.1-1.4,0.3
	S998.4,250.5,998.8,250.4z"/>
<path class="st5" d="M1029.6,259.7c-0.3,0.3-0.6,0.7-0.7,1.1c0,0.2-0.1,0.4-0.3,0.6c-0.1,0-0.2,0.1-0.2,0.2
	c-0.6,0.8-1.2,1.6-1.9,2.3c-0.7,0.7-1.3,1.4-1.9,2.2c-0.9,1.2-2.1,2.3-3.3,3.2c-0.1-0.1-0.2,0.1-0.2,0.2c0,0.8-4.6,4.1-7.4,5.3
	s-4.5,1.3-6.3,0.5c-0.8-0.3-1.8-1.3-1.9-1.8c-0.1-0.3-0.3-0.5-0.5-0.7c-0.8-0.9-1.3-2.1-1.2-3.3c0-1.3,0.3-2.6,0.7-3.8
	c0.1-0.2,0.4-1,0.7-1.8c1.1-2.9,2.3-5.7,3.6-8.5l0.9-1.8l-0.7,0.5c-0.5,0.4-1,0.9-1.5,1.4c-0.5,0.9-0.8,1.1-1.3,1.2
	s-1.1,0.6-2.6,2.1c-0.7,0.7-1.4,1.4-2.2,1.9c-0.2,0-0.3,0.2-0.3,0.3c0,0.4-0.7,1.5-0.7,1c0-0.1-0.2,0.1-0.4,0.5s-1,1.3-1.7,2.2
	s-2.4,3-3.6,4.6c-2.8,3.7-3.2,4.2-4.9,5.6s-2.2,1.6-3,1.2c-0.3-0.2-0.6-0.4-0.9-0.6c-0.1-0.2-0.2-0.3-0.4-0.3
	c-0.3,0-0.4-0.7-0.2-0.9s0.1-0.2-0.1-0.3c-1.1-0.9-1.2-2.6-0.1-4.9c0.4-0.7,0.7-1.4,0.9-1.4s0.3,0-0.4,1.4s-1,3.1-0.7,3.5
	c0.1,0.2,0.2,0.2,0.2-0.1c0.1-0.4,0.2-0.8,0.4-1.3c0.3-0.4,0.4-0.8,0.3-1.3c-0.1-0.3,0-0.7,0.8-1.7c0.8-1.3,1-1.8,0.5-1.3
	c-0.2,0.1-0.3,0.1-0.3,0c0-0.1,0.1-0.2,0.2-0.2c0,0,0,0,0,0c0.2-0.2,0.4-0.5,0.6-0.8c0.2-0.5,0.5-1,0.9-1.4c0.7-0.9,1.3-1.8,1.9-2.7
	c0.9-1.4,1.9-2.8,3-4.1c0.1-0.1,0.2-0.3,0.3-0.5c0.3-0.6,0.6-1.2,1-1.7c0.4-0.5,0.8-1,1.1-1.5c1.1-1.6,2.3-3.1,3.7-4.5
	c0.7-0.8,1.5-1.6,2.4-2.2c0.5-0.1,0.9-0.4,1.3-0.7c0.8-0.9,2.1-1.3,3.3-0.9c0.5,0.1,0.9,0.3,1.3,0.5c0.3,0.3,0.6,0.5,0.9,0.7
	c0.5,0.4,0.9,1,1.2,1.6c0.2,0.4,0.5,0.8,0.9,1.2c0.2,0.2,0.5,0.4,0.7,0.6c0.2,0.2,0.5,0.4,0.7,0.5c0.4,0,0.8,1.3,0.8,2.2
	c-0.1,1-0.3,2-0.7,2.9c-0.4,1-1,2.7-1.3,3.7s-1.2,3.2-1.8,4.9c-1.4,3.4-2,5.5-2,7.1c0,1,0,1.2,0.5,1.3c1.1,0.1,2.3-0.1,3.3-0.7
	c3.4-1.6,6.6-3.7,9.4-6.3c1-0.9,1.6-1.3,1.8-1.2s0.9-0.5,2-1.6c1.3-1.3,1.9-1.8,2-1.6s-0.1,0.5-0.3,0.7c-0.2,0.2-0.3,0.4-0.4,0.6
	c0.4-0.3,0.9-0.7,1.3-1c0.4-0.5,0.9-0.9,1.5-1.3c0.2-0.1,0.5-0.2,0.5-0.4c0.2-0.6,0.7-1.1,1.3-1.3
	C1030.3,258.9,1030.2,259.1,1029.6,259.7z M1006.4,249.1c-1.2,0.8-2.4,1.7-3.4,2.8c-0.4,0.5-0.7,0.5-0.5,0.1
	c0.1-0.2,0.1-0.3-0.1-0.2s-0.2,0.3-0.2,0.5c0,0.4-0.7,1.3-3,3.7c-1.1,1.1-2.1,2.4-3,3.6c-1,1.3-1.9,2.5-2,2.7
	c-1.4,2.1-2.7,4.2-3.8,6.5c0,0.3,0.4-0.1,2.2-2.2c3.5-4.2,4.3-5.1,4.3-4.3c0,0.1,0.1,0.1,0.1-0.1c0.1-0.2,0.1-0.4,0-0.6
	c0.4-0.8,1-1.6,1.7-2.2c1.6-1.8,1.9-2,2.4-2s0.5,0,0.3-0.3s-0.1-0.5,1.6-2.2c1.8-1.8,2-2.1,2.7-3.8
	C1006.1,250,1006.4,249.1,1006.4,249.1L1006.4,249.1z M991.4,261.9c0,0.3,0.2,0.2,0.5-0.2c0.1-0.2,0.2-0.4,0.1-0.5s-0.2,0-0.2,0.2
	s-0.1,0.3-0.2,0.3S991.4,261.9,991.4,261.9L991.4,261.9z M1001.6,258c-1.3,1.3-2.5,2.6-3.7,4.1c0.1,0,1-1.1,2.3-2.4
	c1.4-1.6,2.3-2.4,2.6-2.4s0.3-0.1,0.3-0.2c0.1-0.3,0.2-0.5,0.3-0.7C1002.7,256.8,1002.1,257.4,1001.6,258L1001.6,258z M1000.3,260.6
	c-0.1-0.3-0.1-0.3-0.3-0.1s-0.2,0.2,0,0.5S1000.5,261,1000.3,260.6L1000.3,260.6z"/>
<path class="st5" d="M1058.8,263.9c-0.7,0.8-1,0.3-0.4-0.7l0.5-0.8l-0.6,0.5c-0.7,0.8-1.3,1.7-1.8,2.6c-3.4,4.8-7.1,9.3-11,13.7
	c-0.6,0.4-1.1,1-1.4,1.6c-0.1,0.3-0.2,0.6-0.4,0.8c-0.1,0.2-0.2,0.4-0.1,0.4c1-0.7,2-1.5,2.8-2.4c1.7-1.7,3.8-4.2,4.8-5.5
	c3.6-4.8,6.2-8,6.2-7.7c-0.3,0.8-0.8,1.5-1.3,2.2c-0.7,1-1.6,2.4-2.1,3.1c-2.3,3.2-4.7,6.3-7.3,9.3c-1.5,1.6-4.7,4.5-6.1,5.8
	c-1.8,1.6-3.8,2.9-6,3.9c-0.3,0.1-0.9,0.3-1.3,0.5c-0.8,0.3-1.7,0.4-2.5,0.4c-1.1,0.2-2.2,0-3.1-0.5c-2.5-1-4.4-3-5.5-5.5
	c-0.2-0.7-0.5-1.3-0.8-2c-0.8-1.9-1.1-5.2-0.5-8.5c1.4-6.7,3.4-13.3,6.1-19.6c0.3-0.8,0.7-1.5,0.7-1.6c-0.1-0.6,5.1-10.4,7-13.5
	c0.7-1.2,1.4-2.6,1.7-3c0.8-1.5,15.2-23.8,25.3-28.8c1.4-0.6,3-0.2,4,1c1.3,1.9,1.3,2.2,1.2,3.3c-0.2,1.4-0.6,2.4-2.1,5.7
	c-2.1,4.5-8.5,16.3-10.5,19.4c-0.1,0.1-0.9,1.5-1.8,3s-2.2,3.6-3,4.7l-2.6,4c-4.4,6.4-9.2,12.6-14.4,18.4c-1.7,1.8-4.3,3.2-5.6,3
	c-0.6-0.1-0.6-0.1-1.1,1.6c-0.3,0.9-0.7,3-1,4.6c-0.8,4.8-0.5,7.6,1,9.8c0.3,0.6,0.9,1,1.5,1c0.6,0.1,1.3,0.1,1.7,0.1
	c1.5-0.1,4.7-1.5,7.4-3.4c3.8-3,7.2-6.4,10.3-10.1c2.1-2.4,2.8-3.2,3.1-3.3c0.8-0.4,1.4-1,1.8-1.8c0.5-0.7,1.1-1.3,1.7-1.9
	c2.1-2.4,4.1-4.9,5.9-7.6c0.4-0.6,0.8-1.3,1.3-1.8c0.5-0.5,0.6,0.2,0.1,1s-0.5,0.9-0.1,0.7C1061.3,259.1,1060.1,262.4,1058.8,263.9z
	 M1022.7,274.2c-0.1-0.2-0.2,0.1-0.3,0.7c-0.1,0.5-0.2,1-0.3,1.5c0,0.2,0.1-0.2,0.3-0.8S1022.7,274.3,1022.7,274.2L1022.7,274.2z
	 M1023.7,269.8c-0.1,0.2-0.2,0.4-0.2,0.7c-0.1,0.5-0.2,1.1-0.4,1.6c-0.4,1.3-0.5,2-0.3,1.8c0.1-0.1,0.3-1.1,0.7-2.3
	S1023.8,269.5,1023.7,269.8L1023.7,269.8z M1024.5,264.6c0.1,0.3,1-1.6,1.3-2.4c0.2-0.7,0.4-1.4,0.7-2.1c0.3-0.8,0.8-2,1.1-2.6
	s0.7-1.7,0.9-2.2c0.3-0.6,0.6-1.2,0.8-1.9c0.3-0.5,1-2.1,1.7-3.6s1.4-2.8,1.5-3.2s0.8-1.5,1.4-2.6c0.4-0.7,0.8-1.4,1.2-2.1
	c0.1-0.3,0.3-0.6,0.5-0.8c0.3-0.2,0.5-0.5,0.6-0.9c-0.1-0.2,0.6-1.1,0.8-1.1s0.3-0.2,0.5-0.4s0.2-0.3-0.1-0.1s-0.3,0.3-0.3,0
	s0.1-0.5,0.2-0.5c0.3-0.4,0.5-0.8,0.8-1.2c0.7-1.2,1.5-2.3,2.3-3.4c0.6-0.8,1.2-1.6,1.8-2.5c0.1-0.3,0.3-0.6,0.5-0.8
	c0.2-0.4,0.3-0.7,0.3-0.7s-3.4,4.6-5.1,7.3c-3.9,6.2-7.3,12.7-10.2,19.4C1026.4,259.1,1024.4,264.3,1024.5,264.6L1024.5,264.6z
	 M1027.4,259.5c0.7-1.8,1.2-3.2,1.1-3.1s-2.6,6.3-2.7,6.8S1026.2,262.4,1027.4,259.5L1027.4,259.5z M1043.9,233.9
	c-0.9,1.1-4,5.8-5.3,8c-2.7,4.7-5.1,9.3-5.3,9.9s-0.7,2-2.5,5.8c-0.6,1.5-3.2,8.3-3.4,9.1c-0.1,0.5-0.1,0.5,0.9-0.3
	c2.8-2.4,6.9-7.3,11.7-13.9c1.7-2.3,3.4-4.7,3.9-5.3s1.3-1.7,1.8-2.6c0.6-1,1.3-2,2.1-3c1.2-1.4,1.9-2.6,5-7.8
	c2.8-4.7,4.9-8.4,7.1-12.6c2.3-4.5,2.5-5,2.4-5.2s0-0.3,0.1-0.4c0.7-1,1.1-2.2,1.2-3.4l0.2-1.4l-0.7,0.5c-0.4,0.3-0.8,0.6-1.2,0.9
	c-0.3,0.3-1.1,1-1.8,1.6c-2.4,2.3-4.7,4.6-6.9,7.2C1051.9,222.7,1044.1,233.6,1043.9,233.9L1043.9,233.9z M1028.8,255.8
	c0.1-0.2,0.1-0.3-0.1-0.2c-0.1,0.1-0.2,0.2-0.2,0.3C1028.6,256.2,1028.7,256.1,1028.8,255.8L1028.8,255.8z M1029,255.1
	c0.2-0.3,0.4-0.7,0.6-1.1c0.2-0.5,0.3-0.7,0.1-0.5C1029.4,254,1029.1,254.5,1029,255.1L1029,255.1z M1030.7,251.7
	c0.1-0.2,0.2-0.3,0.3-0.5c0.2-0.4,0.2-0.4-0.1-0.1s-0.3,0.4-0.3,0.5L1030.7,251.7z M1033,247.2l0.3-0.6l-0.4,0.4
	c-0.2,0.2-0.3,0.4-0.3,0.7C1032.5,247.9,1032.6,247.7,1033,247.2L1033,247.2z M1033.4,246.4c0.1,0,0.4-0.5,0.7-1.1s0.5-1,0.3-1
	S1033.1,246.4,1033.4,246.4L1033.4,246.4z M1035,243.7c0.2-0.5,0.5-1,0.9-1.5c0.3-0.6,0.6-1,0.5-1s-0.2,0.1-0.2,0.1
	c-0.2,0.4-0.4,0.7-0.6,1c-0.3,0.4-0.5,0.8-0.7,1.3C1034.7,244,1034.7,244,1035,243.7L1035,243.7z M1036.7,240.6
	c0.1-0.2,0-0.3-0.1-0.2c-0.1,0.1-0.2,0.2-0.2,0.3C1036.5,241,1036.6,240.9,1036.7,240.6L1036.7,240.6z M1037.7,238.5
	c0.1-0.2,0.2-0.3,0.3-0.5c0.3-0.4,0.2-0.4-0.1-0.1c-0.2,0.1-0.3,0.3-0.3,0.5C1037.7,238.4,1037.7,238.5,1037.7,238.5L1037.7,238.5z
	 M1043.4,232.6c0.2-0.1,0.3-0.3,0.4-0.5c0-0.3-0.1-0.2-0.5,0.3S1042.9,232.9,1043.4,232.6L1043.4,232.6z M1057.6,229.7
	c-0.2,0.1-0.6,1-0.5,1s0.3-0.3,0.4-0.6S1057.7,229.6,1057.6,229.7L1057.6,229.7z"/>
</svg>
