<?xml version="1.0" encoding="utf-8"?>
<!-- Generator: Adobe Illustrator 24.2.3, SVG Export Plug-In . SVG Version: 6.00 Build 0)  -->
<svg version="1.1" id="Layer_1" xmlns="http://www.w3.org/2000/svg" xmlns:xlink="http://www.w3.org/1999/xlink" x="0px" y="0px"
	 viewBox="0 0 465.88 465.88" style="enable-background:new 0 0 465.88 465.88;" xml:space="preserve">
<style type="text/css">
	.st0{fill:#E6E6E6;}
	.st1{fill:#DD2A2F;}
	.st2{fill:none;stroke:#999999;}
	.st3{fill:#666666;}
	.st4{fill:none;stroke:#DD2A2F;stroke-width:3;stroke-linejoin:round;stroke-miterlimit:10;}
	.st5{opacity:0.22;fill:#999999;}
	.st6{opacity:0.22;}
	.st7{fill:#999999;}
	.st8{fill:#FFFFFF;}
	.st9{fill:none;stroke:#DD2A2F;stroke-width:5;stroke-linecap:round;stroke-linejoin:round;stroke-miterlimit:10;}
	.st10{fill:#232121;}
	.st11{fill:#C1C1C1;}
	.st12{fill:#B5242F;}
	.st13{fill:#404242;}
	.st14{fill:#565959;}
	.st15{fill:#1A1A1A;}
	.st16{opacity:0.43;fill:#666666;}
	.st17{opacity:0.64;fill:#666666;}
	.st18{opacity:0.18;fill:#666666;}
	.st19{fill:#0F0F0F;}
	.st20{fill:#EBE1DC;}
	.st21{fill:#F7F3F1;}
	.st22{fill:#E6E9ED;}
	.st23{fill:#9EA7AF;}
	.st24{fill-rule:evenodd;clip-rule:evenodd;fill:#D0D7DF;}
	.st25{fill-rule:evenodd;clip-rule:evenodd;fill:#DD2A2F;}
	.st26{fill-rule:evenodd;clip-rule:evenodd;}
	.st27{fill:#D5F6EA;}
	.st28{fill:none;stroke:#4D4D4D;stroke-miterlimit:10;}
</style>
<g>
	<g>
		<circle class="st8" cx="222.69" cy="231.2" r="202.68"/>
		<path class="st9" d="M445.87,235.78c0,110.58-90.99,201.57-201.57,201.57S42.73,346.36,42.73,235.78S133.72,34.21,244.3,34.21
			c73.07,0,140.63,39.73,176.15,103.59"/>
		<circle class="st1" cx="435.62" cy="165.09" r="10.25"/>
	</g>
	<g>
		<path class="st11" d="M337.94,307.78l34.27,15.57c0,8.6-6.97,15.57-15.57,15.57h-18.7V307.78z"/>
		<path class="st0" d="M114.35,323.35c0,8.6,6.97,15.57,15.57,15.57h93.39l19.98-9.99l19.98,9.99h75.04
			c8.6,0,15.57-6.97,15.57-15.57l-110.58-46.7L114.35,323.35z"/>
		<path class="st1" d="M207.74,323.35L243.28,300l35.54,23.35c0,8.6-6.97,15.57-15.57,15.57h-39.95
			C214.71,338.91,207.74,331.94,207.74,323.35z"/>
		<path class="st11" d="M337.87,268.4c-2.84-4.55-7.83-7.32-13.2-7.32l-81.39-23.35l110.58,85.61h18.35L337.87,268.4z"/>
		<path class="st0" d="M319.52,268.4l5.16,8.25l-11.06,11.67L339.26,300l14.59,23.35H114.35l34.34-54.94
			c2.84-4.55,7.83-7.32,13.2-7.32l81.39-23.35l63.04,23.35C311.69,261.09,316.67,263.85,319.52,268.4L319.52,268.4z"/>
		<path class="st12" d="M324.67,276.65h-18.36l-8.27,11.67L320.91,300h18.36L324.67,276.65z"/>
		<path class="st1" d="M161.89,276.65L147.3,300h173.61l-14.59-23.35H161.89z"/>
		<path class="st13" d="M324.67,112.18h-15.57v148.91h15.57c8.6,0,15.57-6.97,15.57-15.57V127.74
			C340.24,119.15,333.27,112.18,324.67,112.18z"/>
		<path class="st14" d="M324.67,245.52v-7.79l-23.35-54.99l23.35-54.99c0-8.6-6.97-15.57-15.57-15.57H161.89
			c-8.6,0-15.57,6.97-15.57,15.57v117.78c0,8.6,6.97,15.57,15.57,15.57h147.22C317.7,261.09,324.67,254.12,324.67,245.52z"/>
		<path class="st12" d="M324.67,127.74l-15.56-0.01c0,0-97.8,55-97.8,55s97.8,55,97.8,55l15.56-0.01
			C324.67,237.73,324.67,127.75,324.67,127.74L324.67,127.74z"/>
		<path class="st1" d="M265.29,127.74l-11.01,11.01c-2.83,2.82-6.72,4.56-11.01,4.56s-8.18-1.74-11-4.56
			c-0.01,0-11.02-11.01-11.02-11.01h-59.38v109.99h147.22V127.74H265.29z"/>
		<circle cx="243.28" cy="127.74" r="3.11"/>
		<path class="st15" d="M328.56,237.74V127.74c0-2.15-1.74-3.89-3.89-3.89h-59.38c-1.03,0-2.02,0.41-2.75,1.14l-11,11
			c-2.22,2.21-5.15,3.43-8.26,3.43c-3.11,0-6.04-1.22-8.25-3.42c-0.02-0.02-0.04-0.04-0.06-0.05c-0.45-0.45-6.77-6.76-10.96-10.95
			c-0.73-0.73-1.72-1.14-2.75-1.14h-59.38c-2.15,0-3.89,1.74-3.89,3.89v47.21c0,2.15,1.74,3.89,3.89,3.89s3.89-1.74,3.89-3.89
			v-43.32h53.88l8.15,8.15c0.74,0.74,1.29,1.29,1.74,1.7l-0.02,0.02c3.68,3.67,8.56,5.7,13.75,5.7c5.18,0,10.06-2.02,13.76-5.7
			l9.87-9.87h53.88v102.21h-155v-43.32c0-2.15-1.74-3.89-3.89-3.89c-2.15,0-3.89,1.74-3.89,3.89v47.21c0,2.15,1.74,3.89,3.89,3.89
			h162.78C326.82,241.63,328.56,239.89,328.56,237.74z"/>
		<path class="st15" d="M375.51,321.28l-34.34-54.95c-1.3-2.08-2.94-3.85-4.83-5.26c4.72-3.55,7.78-9.2,7.78-15.56V127.74
			c0-10.73-8.73-19.46-19.46-19.46H161.89c-10.73,0-19.46,8.73-19.46,19.46v117.78c0,6.35,3.06,12,7.78,15.55
			c-1.88,1.42-3.53,3.19-4.83,5.26l-34.34,54.94c-0.39,0.62-0.59,1.33-0.59,2.06c0,10.73,8.73,19.46,19.46,19.46h226.73
			c10.73,0,19.46-8.73,19.46-19.46C376.1,322.62,375.9,321.9,375.51,321.28z M150.22,245.52V127.74c0-6.44,5.24-11.67,11.67-11.67
			h162.78c6.44,0,11.67,5.24,11.67,11.67v117.78c0,6.44-5.24,11.67-11.67,11.67H161.89C155.45,257.19,150.22,251.96,150.22,245.52z
			 M151.99,270.46c2.15-3.44,5.85-5.49,9.9-5.49h162.78c4.05,0,7.75,2.05,9.9,5.49l30.62,48.99H121.37L151.99,270.46z
			 M118.92,327.24h85.32c0.59,2.87,1.81,5.52,3.51,7.78h-77.84C124.84,335.02,120.53,331.76,118.92,327.24z M223.31,335.02
			c-5.07,0-9.4-3.25-11-7.78h61.96c-1.61,4.53-5.93,7.78-11,7.78H223.31z M356.65,335.02h-77.84c1.7-2.26,2.92-4.91,3.51-7.78h85.32
			C366.03,331.76,361.72,335.02,356.65,335.02L356.65,335.02z"/>
		<path class="st15" d="M143.89,301.88c0.69,1.24,1.99,2,3.4,2h191.97c1.41,0,2.72-0.77,3.4-2c0.69-1.24,0.65-2.75-0.1-3.95
			l-14.59-23.35c-0.71-1.14-1.96-1.83-3.3-1.83H161.89c-1.34,0-2.59,0.69-3.3,1.83L144,297.94
			C143.25,299.14,143.21,300.65,143.89,301.88L143.89,301.88z M164.05,280.54h158.47l9.73,15.57H154.32L164.05,280.54z"/>
	</g>
</g>
</svg>
