<?xml version="1.0" encoding="utf-8"?>
<!-- Generator: Adobe Illustrator 24.2.3, SVG Export Plug-In . SVG Version: 6.00 Build 0)  -->
<svg version="1.1" id="Layer_1" xmlns="http://www.w3.org/2000/svg" xmlns:xlink="http://www.w3.org/1999/xlink" x="0px" y="0px"
	 viewBox="0 0 465.88 465.88" style="enable-background:new 0 0 465.88 465.88;" xml:space="preserve">
<style type="text/css">
	.st0{fill:#E6E6E6;}
	.st1{fill:#DD2A2F;}
	.st2{fill:none;stroke:#999999;}
	.st3{fill:#666666;}
	.st4{fill:none;stroke:#DD2A2F;stroke-width:3;stroke-linejoin:round;stroke-miterlimit:10;}
	.st5{opacity:0.22;fill:#999999;}
	.st6{opacity:0.22;}
	.st7{fill:#999999;}
	.st8{fill:#FFFFFF;}
	.st9{fill:none;stroke:#DD2A2F;stroke-width:5;stroke-linecap:round;stroke-linejoin:round;stroke-miterlimit:10;}
	.st10{fill:#232121;}
	.st11{fill:#C1C1C1;}
	.st12{fill:#B5242F;}
	.st13{fill:#404242;}
	.st14{fill:#565959;}
	.st15{fill:#1A1A1A;}
	.st16{opacity:0.43;fill:#666666;}
	.st17{opacity:0.64;fill:#666666;}
	.st18{opacity:0.18;fill:#666666;}
	.st19{fill:#0F0F0F;}
	.st20{fill:#EBE1DC;}
	.st21{fill:#F7F3F1;}
	.st22{fill:#E6E9ED;}
	.st23{fill:#9EA7AF;}
	.st24{fill-rule:evenodd;clip-rule:evenodd;fill:#D0D7DF;}
	.st25{fill-rule:evenodd;clip-rule:evenodd;fill:#DD2A2F;}
	.st26{fill-rule:evenodd;clip-rule:evenodd;}
	.st27{fill:#D5F6EA;}
	.st28{fill:none;stroke:#4D4D4D;stroke-miterlimit:10;}
</style>
<g>
	<g>
		<circle class="st8" cx="222.87" cy="231.4" r="202.87"/>
		<path class="st9" d="M101.84,93.31c78.27-78.27,207.08-78.27,285.34,0s78.27,207.08,0,285.34s-207.08,78.27-285.34,0
			c-51.72-51.72-71.42-127.66-51.36-198"/>
		<circle class="st1" cx="59.06" cy="150.6" r="10.26"/>
	</g>
	<g>
		<path class="st22" d="M186.05,319.12c-2.25,0-4.1-1.84-4.1-4.09v-20.41c0-2.25,1.85-4.09,4.1-4.09h48.94v-19.76
			c-18.42-2.12-35.02-12.9-44.38-29.21c-0.47-0.81-0.47-1.81,0-2.63c9.36-16.3,25.97-27.08,44.38-29.21v-50.76
			c0-1.38-1.13-2.5-2.5-2.5H123.18c-1.38,0-2.5,1.13-2.5,2.5v179.59c0,1.38,1.13,2.5,2.5,2.5h109.31c1.38,0,2.5-1.13,2.5-2.5v-19.44
			H186.05z"/>
		<path class="st1" d="M190.61,241.57c-0.47-0.81-0.47-1.81,0-2.63c6.64-11.58,16.94-20.36,28.95-25.25v-8.61
			c0-1.38-1.13-2.5-2.5-2.5h-78.44c-1.38,0-2.5,1.13-2.5,2.5v52.34c0,1.38,1.13,2.5,2.5,2.5h68.52
			C200.49,255.11,194.82,248.9,190.61,241.57z"/>
		<path class="st0" d="M241.69,271.17c-21.02,0-40.59-11.34-51.08-29.6c-0.47-0.81-0.47-1.81,0-2.63
			c10.48-18.26,30.05-29.6,51.08-29.6c21.03,0,40.6,11.34,51.08,29.6c0.47,0.81,0.47,1.81,0,2.63
			C282.28,259.83,262.71,271.17,241.69,271.17z"/>
		<path class="st10" d="M260.2,240.26c0-10.23-8.29-18.53-18.51-18.53s-18.51,8.3-18.51,18.53s8.29,18.53,18.51,18.53
			S260.2,250.49,260.2,240.26z"/>
		<path class="st8" d="M241.69,221.73c-1.9,0-3.73,0.29-5.46,0.82c-0.09,0.75-0.14,1.51-0.14,2.28c0,10.23,8.29,18.53,18.51,18.53
			c1.9,0,3.74-0.29,5.46-0.82c0.09-0.75,0.14-1.51,0.14-2.28C260.2,230.02,251.91,221.73,241.69,221.73z"/>
		<path class="st0" d="M316,121.25c-19.25,0-34.91,15.61-34.91,34.81c0,6.13,1.62,12.16,4.69,17.44c2.98,5.12,7.25,9.43,12.34,12.47
			l1.57,0.94v8.5h32.6v-8.5l1.57-0.94c5.1-3.04,9.37-7.35,12.35-12.47c3.07-5.27,4.69-11.3,4.69-17.44
			C350.91,136.87,335.25,121.25,316,121.25z"/>
		<path class="st8" d="M315.81,151.59c-3.7,0-6.72,3.03-6.72,6.73v8.21c0,3.7,3.03,6.73,6.72,6.73h0.39c3.7,0,6.72-3.03,6.72-6.73
			v-8.21c0-3.7-3.03-6.73-6.72-6.73H315.81z"/>
		<path class="st23" d="M307.91,217.07v9.04c0,1.53,1.25,2.78,2.78,2.78h10.63c1.53,0,2.78-1.25,2.78-2.78v-9.04H307.91z"/>
		<path class="st1" d="M335.68,214.83c0,1.23-1.01,2.24-2.24,2.24h-34.87c-1.23,0-2.24-1.01-2.24-2.24v-17.18
			c0-1.23,1.01-2.24,2.24-2.24h34.87c1.23,0,2.24,1.01,2.24,2.24V214.83z"/>
		<path class="st0" d="M186.05,319.12c-2.25,0-4.1-1.84-4.1-4.09v-20.41c0-2.25,1.85-4.09,4.1-4.09H304.1c2.25,0,5.72,0.88,7.7,1.96
			l19.02,10.37c1.98,1.08,1.98,2.84,0,3.92l-19.02,10.37c-1.98,1.08-5.44,1.96-7.7,1.96H186.05z"/>
		<path class="st10" d="M302.45,319.12h1.65c2.25,0,5.72-0.88,7.7-1.96l19.02-10.37c1.98-1.08,1.98-2.84,0-3.92l-19.02-10.37
			c-1.98-1.08-5.44-1.96-7.7-1.96h-1.65V319.12z"/>
		<path class="st1" d="M318.03,313.76l12.79-6.97c1.98-1.08,1.98-2.84,0-3.92l-12.79-6.97V313.76z"/>
		<path class="st1" d="M181.95,294.63v20.41c0,2.25,1.85,4.09,4.1,4.09h19.67v-28.58h-19.67
			C183.8,290.54,181.95,292.38,181.95,294.63z"/>
		<path d="M353.13,145.29c-0.58-1.99-2.67-3.14-4.66-2.55c-1.99,0.58-3.13,2.67-2.55,4.66c0.82,2.8,1.23,5.72,1.23,8.67
			c0,5.47-1.44,10.85-4.18,15.55c-2.66,4.57-6.47,8.42-11.02,11.13l-1.57,0.94c-1.14,0.68-1.84,1.9-1.84,3.23v4.75h-8.78v-15.27
			c4.03-1.46,6.92-5.32,6.92-9.85v-8.21c0-5.78-4.7-10.49-10.48-10.49h-0.39c-5.78,0-10.48,4.7-10.48,10.49v8.21
			c0,4.53,2.89,8.39,6.92,9.85v15.28h-8.78v-4.75c0-1.32-0.7-2.55-1.84-3.23l-1.57-0.94c-4.55-2.71-8.36-6.56-11.02-11.13
			c-2.73-4.7-4.18-10.07-4.18-15.55c0-17.12,13.97-31.05,31.15-31.05c8.15,0,15.87,3.13,21.73,8.82c1.49,1.44,3.87,1.41,5.31-0.08
			c1.45-1.49,1.41-3.87-0.08-5.31c-7.27-7.06-16.84-10.95-26.96-10.95c-21.32,0-38.66,17.3-38.66,38.57c0,6.8,1.8,13.48,5.2,19.32
			c3.25,5.58,7.88,10.3,13.41,13.65v3.22c-2,0.98-3.38,3.02-3.38,5.39v17.18c0,3.31,2.69,6,6,6h5.59v5.28c0,3.6,2.93,6.54,6.53,6.54
			h10.63c3.6,0,6.54-2.93,6.54-6.54v-5.28h5.59c3.31,0,6-2.69,6-6v-17.18c0-2.37-1.38-4.41-3.38-5.39v-3.22
			c5.53-3.35,10.16-8.07,13.41-13.65c3.4-5.85,5.2-12.53,5.2-19.32C354.67,152.4,354.15,148.78,353.13,145.29z M312.84,158.32
			c0-1.64,1.33-2.97,2.97-2.97h0.39c1.64,0,2.97,1.33,2.97,2.97v8.21c0,1.64-1.33,2.97-2.97,2.97h-0.39c-1.64,0-2.97-1.33-2.97-2.97
			V158.32z M320.34,225.13h-8.67v-4.3h8.67V225.13z M331.93,213.32h-31.84v-14.15h31.84V213.32z"/>
		<path d="M316,112.9c2.08,0,3.76-1.68,3.76-3.76v-6.23c0-2.08-1.68-3.76-3.76-3.76s-3.76,1.68-3.76,3.76v6.23
			C312.25,111.21,313.93,112.9,316,112.9z"/>
		<path d="M293.06,114.89c0.62,1.4,1.99,2.22,3.43,2.22c0.51,0,1.04-0.11,1.53-0.33c1.89-0.85,2.74-3.07,1.89-4.96l-2.55-5.69
			c-0.85-1.89-3.07-2.74-4.96-1.89c-1.89,0.85-2.74,3.07-1.89,4.96L293.06,114.89z"/>
		<path d="M273.24,123.77l4.65,4.16c0.72,0.64,1.61,0.96,2.5,0.96c1.03,0,2.06-0.42,2.8-1.25c1.38-1.55,1.25-3.92-0.3-5.31
			l-4.65-4.16c-1.55-1.38-3.92-1.25-5.31,0.3C271.56,120.01,271.7,122.39,273.24,123.77z"/>
		<path d="M263.42,144.09l5.95,1.91c0.38,0.12,0.77,0.18,1.15,0.18c1.59,0,3.06-1.02,3.58-2.61c0.63-1.98-0.45-4.09-2.43-4.73
			l-5.95-1.91c-1.98-0.63-4.09,0.45-4.73,2.43C260.36,141.35,261.45,143.46,263.42,144.09z"/>
		<path d="M262.35,166.67c0.14,0,0.27-0.01,0.41-0.02l6.21-0.68c2.06-0.22,3.55-2.08,3.33-4.14c-0.22-2.06-2.07-3.56-4.14-3.33
			l-6.21,0.68c-2.06,0.22-3.55,2.08-3.33,4.14C258.83,165.24,260.46,166.67,262.35,166.67z"/>
		<path d="M267.59,181.02c-1.79,1.04-2.4,3.34-1.35,5.14c0.7,1.2,1.96,1.87,3.25,1.87c0.64,0,1.29-0.16,1.89-0.51l5.39-3.14
			c1.79-1.04,2.4-3.34,1.36-5.14c-1.04-1.79-3.34-2.4-5.14-1.36L267.59,181.02z"/>
		<path d="M333.98,116.78c0.5,0.22,1.02,0.33,1.53,0.33c1.43,0,2.81-0.83,3.43-2.22l2.55-5.69c0.85-1.89,0-4.12-1.89-4.96
			c-1.89-0.85-4.12,0-4.96,1.89l-2.55,5.69C331.24,113.71,332.08,115.93,333.98,116.78z"/>
		<path d="M351.61,128.89c0.89,0,1.79-0.32,2.5-0.96l4.65-4.16c1.55-1.38,1.68-3.76,0.3-5.31c-1.38-1.55-3.76-1.68-5.31-0.3
			l-4.65,4.16c-1.55,1.38-1.68,3.76-0.3,5.31C349.55,128.46,350.58,128.89,351.61,128.89z"/>
		<path d="M357.91,143.57c0.51,1.59,1.99,2.61,3.58,2.61c0.38,0,0.77-0.06,1.15-0.18l5.95-1.91c1.97-0.63,3.06-2.75,2.43-4.72
			c-0.63-1.98-2.75-3.06-4.73-2.43l-5.95,1.91C358.37,139.48,357.28,141.6,357.91,143.57z"/>
		<path d="M370.06,159.18l-6.21-0.68c-2.07-0.23-3.92,1.27-4.14,3.33c-0.22,2.06,1.27,3.92,3.33,4.14l6.21,0.68
			c0.14,0.01,0.28,0.02,0.41,0.02c1.89,0,3.52-1.43,3.73-3.35C373.61,161.25,372.12,159.4,370.06,159.18z"/>
		<path d="M364.41,181.02l-5.39-3.14c-1.79-1.04-4.09-0.44-5.14,1.35c-1.04,1.79-0.44,4.09,1.36,5.14l5.39,3.14
			c0.59,0.35,1.25,0.51,1.89,0.51c1.29,0,2.55-0.67,3.25-1.87C366.81,184.36,366.21,182.06,364.41,181.02z"/>
		<path d="M158.78,185.78h38.11c2.07,0,3.76-1.68,3.76-3.76c0-2.08-1.68-3.76-3.76-3.76h-38.11c-2.08,0-3.76,1.68-3.76,3.76
			C155.02,184.1,156.7,185.78,158.78,185.78z"/>
		<path d="M141.22,280.33h73.22c2.08,0,3.76-1.68,3.76-3.76c0-2.07-1.68-3.76-3.76-3.76h-73.22c-2.07,0-3.76,1.68-3.76,3.76
			C137.47,278.65,139.15,280.33,141.22,280.33z"/>
		<path d="M263.96,240.26c0-12.29-9.99-22.28-22.27-22.28c-12.28,0-22.27,10-22.27,22.28c0,12.29,9.99,22.28,22.27,22.28
			C253.97,262.54,263.96,252.54,263.96,240.26z M241.69,225.49c7.88,0,14.33,6.21,14.73,13.99c-0.6,0.07-1.22,0.12-1.83,0.12
			c-7.88,0-14.33-6.21-14.73-14C240.46,225.53,241.07,225.49,241.69,225.49z M226.93,240.26c0-4.73,2.24-8.95,5.71-11.66
			c1.79,10.5,10.95,18.52,21.94,18.52c0.05,0,0.11,0,0.16,0c-2.47,4.7-7.4,7.91-13.06,7.91
			C233.55,255.02,226.93,248.4,226.93,240.26z"/>
		<path d="M332.62,299.57l-19.02-10.37c-2.53-1.38-6.61-2.42-9.49-2.42h-65.35v-11.93c0.97,0.05,1.95,0.08,2.94,0.08
			c22.37,0,43.19-12.07,54.34-31.49c1.13-1.96,1.13-4.4,0-6.37c-11.15-19.42-31.97-31.48-54.34-31.48c-0.98,0-1.96,0.03-2.94,0.08
			v-46.68c0-3.45-2.81-6.26-6.26-6.26h-68.98c-2.08,0-3.76,1.68-3.76,3.76c0,2.08,1.68,3.76,3.76,3.76h67.73v46.24
			c-2.69,0.46-5.33,1.09-7.92,1.89v-3.28c0-3.45-2.81-6.26-6.26-6.26h-78.44c-3.45,0-6.26,2.81-6.26,6.26v52.34
			c0,3.45,2.81,6.26,6.26,6.26h67.33c7.52,5.23,16.15,8.8,25.29,10.36v12.74h-45.19c-2.87,0-5.37,1.55-6.75,3.84h-38.08
			c-2.07,0-3.76,1.68-3.76,3.76c0,2.08,1.68,3.76,3.76,3.76h36.97v10.3h-36.97c-2.07,0-3.76,1.68-3.76,3.76
			c0,2.07,1.68,3.76,3.76,3.76h37.03c0.46,3.89,3.78,6.93,7.8,6.93h45.19v14.43H124.43V160.23h21.04c2.08,0,3.76-1.68,3.76-3.76
			c0-2.07-1.68-3.76-3.76-3.76h-22.29c-3.45,0-6.26,2.81-6.26,6.26v179.59c0,3.45,2.81,6.26,6.26,6.26h109.31
			c3.45,0,6.26-2.81,6.26-6.26v-15.68h65.35c2.88,0,6.96-1.04,9.49-2.42l19.03-10.37c2.19-1.19,3.44-3.11,3.44-5.26
			C336.06,302.68,334.8,300.76,332.62,299.57z M201.97,315.37h-15.92c-0.18,0-0.34-0.16-0.34-0.33v-20.41
			c0-0.17,0.16-0.33,0.34-0.33h15.92V315.37z M139.87,256.16v-49.84h75.93v4.89c-11.76,5.36-21.82,14.31-28.45,25.85
			c-1.13,1.97-1.13,4.41,0,6.37c2.69,4.69,5.96,8.95,9.67,12.72H139.87z M194.19,240.26c9.89-16.77,28.03-27.16,47.5-27.16
			c19.47,0,37.61,10.39,47.5,27.16c-9.89,16.77-28.03,27.16-47.5,27.16C222.22,267.41,204.08,257.03,194.19,240.26z M298.69,301.07
			h-15.45c-2.08,0-3.76,1.68-3.76,3.76c0,2.08,1.68,3.76,3.76,3.76h15.45v6.78h-89.21v-6.78h56.22c2.07,0,3.76-1.68,3.76-3.76
			c0-2.07-1.68-3.76-3.76-3.76h-56.22v-6.78h89.21V301.07z M314.27,311.53l-4.28,2.33c-0.91,0.49-2.41,0.97-3.79,1.25v-20.56
			c1.39,0.28,2.89,0.76,3.79,1.25l4.28,2.33V311.53z M321.79,307.44v-5.21l4.78,2.6L321.79,307.44z"/>
	</g>
</g>
</svg>
