<?xml version="1.0" encoding="utf-8"?>
<!-- Generator: Adobe Illustrator 24.2.3, SVG Export Plug-In . SVG Version: 6.00 Build 0)  -->
<svg version="1.1" id="Layer_1" xmlns="http://www.w3.org/2000/svg" xmlns:xlink="http://www.w3.org/1999/xlink" x="0px" y="0px"
	 viewBox="0 0 465.88 465.88" style="enable-background:new 0 0 465.88 465.88;" xml:space="preserve">
<style type="text/css">
	.st0{fill:#E6E6E6;}
	.st1{fill:#DD2A2F;}
	.st2{fill:none;stroke:#999999;}
	.st3{fill:#666666;}
	.st4{fill:none;stroke:#DD2A2F;stroke-width:3;stroke-linejoin:round;stroke-miterlimit:10;}
	.st5{opacity:0.22;fill:#999999;}
	.st6{opacity:0.22;}
	.st7{fill:#999999;}
	.st8{fill:#FFFFFF;}
	.st9{fill:none;stroke:#DD2A2F;stroke-width:5;stroke-linecap:round;stroke-linejoin:round;stroke-miterlimit:10;}
	.st10{fill:#232121;}
	.st11{fill:#C1C1C1;}
	.st12{fill:#B5242F;}
	.st13{fill:#404242;}
	.st14{fill:#565959;}
	.st15{fill:#1A1A1A;}
	.st16{opacity:0.43;fill:#666666;}
	.st17{opacity:0.64;fill:#666666;}
	.st18{opacity:0.18;fill:#666666;}
	.st19{fill:#0F0F0F;}
	.st20{fill:#EBE1DC;}
	.st21{fill:#F7F3F1;}
	.st22{fill:#E6E9ED;}
	.st23{fill:#9EA7AF;}
	.st24{fill-rule:evenodd;clip-rule:evenodd;fill:#D0D7DF;}
	.st25{fill-rule:evenodd;clip-rule:evenodd;fill:#DD2A2F;}
	.st26{fill-rule:evenodd;clip-rule:evenodd;}
	.st27{fill:#D5F6EA;}
	.st28{fill:none;stroke:#4D4D4D;stroke-miterlimit:10;}
</style>
<g>
	<g>
		<circle class="st8" cx="222.99" cy="231.25" r="196.64"/>
		<path class="st9" d="M439.53,235.7c0,107.29-88.28,195.57-195.57,195.57S48.39,342.99,48.39,235.7S136.67,40.13,243.96,40.13
			c70.89,0,136.45,38.55,170.91,100.5"/>
		<circle class="st1" cx="429.58" cy="167.11" r="9.95"/>
	</g>
	<g>
		<path class="st24" d="M330.78,209.86v109.16c0,11.44-9.36,20.79-20.79,20.79H164.1c-11.44,0-20.79-9.36-20.79-20.79V209.86H330.78
			z"/>
		<path class="st25" d="M135.5,182.9l7.81,26.96l180.07-52.17l-7.81-26.96c-3.18-10.98-14.77-17.37-25.76-14.18l-140.13,40.59
			C138.7,160.32,132.31,171.91,135.5,182.9z"/>
		<path class="st25" d="M143.31,209.86h187.48v42.62H143.31V209.86z"/>
		<path class="st25" d="M263.98,295.68l-20.01-11.55l-20.01-11.55v46.2l20.01-11.55L263.98,295.68z"/>
		<path class="st26" d="M330.78,205.31H175.4l149.25-43.24c1.16-0.34,2.14-1.12,2.72-2.18c0.58-1.06,0.72-2.3,0.39-3.46l-7.81-26.96
			c-3.12-10.77-13.15-18.29-24.38-18.29c-2.37,0-4.73,0.34-7.01,1l-140.13,40.59c-6.48,1.88-11.85,6.19-15.13,12.13
			c-3.27,5.94-4.04,12.79-2.17,19.27l7.63,26.34v108.51c0,13.98,11.37,25.35,25.35,25.35h54.73c2.52,0,4.55-2.04,4.55-4.55
			s-2.04-4.55-4.55-4.55H164.1c-8.95,0-16.24-7.28-16.24-16.24v-61.98h23.33h0.01h0.01h35.67h0.01h0.01h35.67h0.01h0.01h35.67h0.01
			h0.01h47.95v61.98c0,8.95-7.28,16.24-16.24,16.24h-54.73c-2.51,0-4.55,2.04-4.55,4.55s2.04,4.55,4.55,4.55h54.73
			c13.98,0,25.35-11.37,25.35-25.35V209.86C335.34,207.34,333.3,205.31,330.78,205.31z M250.47,247.93l19.35-33.51h25.17
			l-19.35,33.51H250.47z M214.78,247.93l19.35-33.51h25.17l-19.35,33.51H214.78z M179.1,247.93l19.35-33.51h25.17l-19.35,33.51
			H179.1z M196.03,188.97l-32.4-31.12l24.28-7.03c0.17,0.25,0.37,0.48,0.6,0.7l32.4,31.12l-24.28,7.03
			C196.46,189.42,196.26,189.19,196.03,188.97z M257.06,131.65l32.4,31.12l-24.28,7.03c-0.17-0.25-0.37-0.49-0.6-0.7l-32.4-31.12
			l24.28-7.03C256.63,131.2,256.83,131.44,257.06,131.65z M222.78,141.59l32.4,31.12l-24.28,7.03c-0.17-0.25-0.37-0.49-0.6-0.7
			l-32.4-31.12l24.28-7.03C222.36,141.13,222.55,141.37,222.78,141.59z M291.08,120.92c1.46-0.42,2.97-0.64,4.48-0.64
			c7.21,0,13.64,4.82,15.63,11.72l6.54,22.59l-18.27,5.29c-0.17-0.25-0.37-0.48-0.6-0.7l-32.4-31.12L291.08,120.92z M141.27,169.29
			c2.1-3.81,5.54-6.57,9.68-7.77l2.68-0.78c0.17,0.25,0.37,0.49,0.6,0.7l32.4,31.12l-40.21,11.65l-6.54-22.59
			C138.67,177.49,139.17,173.11,141.27,169.29z M147.86,214.41h40.07l-19.35,33.51h-20.72V214.41z M286.16,247.93l19.35-33.51h20.72
			v33.51H286.16z"/>
		<path class="st26" d="M268.54,295.68c0-1.63-0.87-3.13-2.28-3.94l-40.01-23.1c-1.41-0.81-3.15-0.81-4.55,0
			c-1.41,0.81-2.28,2.32-2.28,3.94v46.2c0,1.63,0.87,3.13,2.28,3.94c0.7,0.41,1.49,0.61,2.28,0.61s1.57-0.2,2.28-0.61l40.01-23.1
			C267.67,298.82,268.54,297.31,268.54,295.68z M228.52,310.9v-30.43l26.35,15.21L228.52,310.9z"/>
		<path class="st26" d="M237.04,335.26c-2.51,0-4.55,2.05-4.55,4.55s2.05,4.55,4.55,4.55c2.51,0,4.55-2.05,4.55-4.55
			S239.55,335.26,237.04,335.26z"/>
	</g>
</g>
</svg>
