<?xml version="1.0" encoding="utf-8"?>
<!-- Generator: Adobe Illustrator 24.2.3, SVG Export Plug-In . SVG Version: 6.00 Build 0)  -->
<svg version="1.1" id="Layer_1" xmlns="http://www.w3.org/2000/svg" xmlns:xlink="http://www.w3.org/1999/xlink" x="0px" y="0px"
	 viewBox="0 0 465.88 465.88" style="enable-background:new 0 0 465.88 465.88;" xml:space="preserve">
<style type="text/css">
	.st0{fill:#E6E6E6;}
	.st1{fill:#DD2A2F;}
	.st2{fill:none;stroke:#999999;}
	.st3{fill:#666666;}
	.st4{fill:none;stroke:#DD2A2F;stroke-width:3;stroke-linejoin:round;stroke-miterlimit:10;}
	.st5{opacity:0.22;fill:#999999;}
	.st6{opacity:0.22;}
	.st7{fill:#999999;}
	.st8{fill:#FFFFFF;}
	.st9{fill:none;stroke:#DD2A2F;stroke-width:5;stroke-linecap:round;stroke-linejoin:round;stroke-miterlimit:10;}
	.st10{fill:#232121;}
	.st11{fill:#C1C1C1;}
	.st12{fill:#B5242F;}
	.st13{fill:#404242;}
	.st14{fill:#565959;}
	.st15{fill:#1A1A1A;}
	.st16{opacity:0.43;fill:#666666;}
	.st17{opacity:0.64;fill:#666666;}
	.st18{opacity:0.18;fill:#666666;}
	.st19{fill:#0F0F0F;}
	.st20{fill:#EBE1DC;}
	.st21{fill:#F7F3F1;}
	.st22{fill:#E6E9ED;}
	.st23{fill:#9EA7AF;}
	.st24{fill-rule:evenodd;clip-rule:evenodd;fill:#D0D7DF;}
	.st25{fill-rule:evenodd;clip-rule:evenodd;fill:#DD2A2F;}
	.st26{fill-rule:evenodd;clip-rule:evenodd;}
	.st27{fill:#D5F6EA;}
	.st28{fill:none;stroke:#4D4D4D;stroke-miterlimit:10;}
</style>
<g>
	<circle class="st8" cx="222.69" cy="231.2" r="202.68"/>
	<path class="st9" d="M445.87,235.78c0,110.58-90.99,201.57-201.57,201.57S42.73,346.36,42.73,235.78S133.72,34.21,244.3,34.21
		c73.07,0,140.63,39.73,176.15,103.59"/>
	<g>
		<g>
			<path class="st3" d="M327.08,162.48c4.89,0,8.85,3.96,8.85,8.85v30.57H152.66v-30.57c0-4.89,3.96-8.85,8.85-8.85H327.08z"/>
			<path class="st3" d="M327.08,162.48h-12.72c4.89,0,8.85,3.96,8.85,8.85v30.57h12.72v-30.57
				C335.93,166.44,331.97,162.48,327.08,162.48z"/>
			<path class="st1" d="M125.17,318.26c-10.12,0-18.33-8.21-18.33-18.33v-82.47c0-10.12,8.21-18.33,18.33-18.33h238.25
				c10.12,0,18.33,8.21,18.33,18.33v82.47c0,10.12-8.21,18.33-18.33,18.33L125.17,318.26L125.17,318.26z"/>
			<path class="st5" d="M363.42,199.13H350.7c10.12,0,18.33,8.21,18.33,18.33v82.47c0,10.12-8.21,18.33-18.33,18.33h12.72
				c10.12,0,18.33-8.21,18.33-18.33v-82.47C381.75,207.33,373.55,199.13,363.42,199.13z"/>
			<path class="st3" d="M106.85,263.27v36.65c0,10.12,8.21,18.33,18.33,18.33h238.25c10.12,0,18.33-8.21,18.33-18.33v-36.65H106.85z
				"/>
			<path class="st5" d="M369.03,299.93c0,10.12-8.21,18.33-18.33,18.33h12.72c10.12,0,18.33-8.21,18.33-18.33v-36.66h-12.72V299.93z
				"/>
			<path class="st0" d="M313.18,217.46H175.42c-2.44,0-4.43-1.98-4.43-4.43v-82.79c0-2.44,1.98-4.43,4.43-4.43h137.77
				c2.44,0,4.43,1.98,4.43,4.43v82.79C317.61,215.48,315.63,217.46,313.18,217.46L313.18,217.46z"/>
			<path class="st0" d="M313.18,345.75H175.42c-2.44,0-4.43-1.98-4.43-4.43v-46.13c0-2.44,1.98-4.43,4.43-4.43h137.77
				c2.44,0,4.43,1.98,4.43,4.43v46.13C317.61,343.77,315.63,345.75,313.18,345.75z"/>
			<path class="st3" d="M281.11,327.42h-73.62c-2.44,0-4.43-1.98-4.43-4.43v-9.48c0-2.44,1.98-4.43,4.43-4.43h73.62
				c2.44,0,4.43,1.98,4.43,4.43v9.48C285.53,325.44,283.55,327.42,281.11,327.42z"/>
			<path class="st5" d="M281.11,309.09h-12.72c2.44,0,4.43,1.98,4.43,4.43v9.48c0,2.44-1.98,4.43-4.43,4.43h12.72
				c2.44,0,4.43-1.98,4.43-4.43v-9.48C285.53,311.07,283.55,309.09,281.11,309.09z"/>
			<g class="st6">
				<path class="st7" d="M313.18,290.77h-12.72c2.44,0,4.43,1.98,4.43,4.43v46.13c0,2.44-1.98,4.43-4.43,4.43h12.72
					c2.44,0,4.43-1.98,4.43-4.43v-46.13C317.61,292.75,315.63,290.77,313.18,290.77z"/>
				<path class="st7" d="M313.18,125.82h-12.72c2.44,0,4.43,1.98,4.43,4.43v82.79c0,2.44-1.98,4.43-4.43,4.43h12.72
					c2.44,0,4.43-1.98,4.43-4.43v-82.79C317.61,127.8,315.63,125.82,313.18,125.82z"/>
			</g>
		</g>
		<g>
			<path class="st10" d="M363.42,194.98h-23.34v-23.66c0-7.17-5.83-13-13-13h-5.33v-28.08c0-4.73-3.85-8.57-8.57-8.57h-34.87
				c-2.29,0-4.15,1.86-4.15,4.15s1.86,4.15,4.15,4.15h34.87c0.15,0,0.28,0.12,0.28,0.28v32.23v36.65v14.18H175.14v-14.18v-36.65
				v-32.23c0-0.15,0.12-0.28,0.28-0.28h86.3c2.29,0,4.15-1.86,4.15-4.15s-1.86-4.15-4.15-4.15h-86.3c-4.73,0-8.57,3.85-8.57,8.57
				v28.08h-5.33c-7.17,0-13,5.83-13,13v23.66h-23.34c-12.39,0-22.48,10.08-22.48,22.47v82.47c0,12.39,10.08,22.48,22.48,22.48h41.67
				v18.92c0,4.73,3.85,8.57,8.57,8.57h137.77c4.73,0,8.57-3.85,8.57-8.57V322.4h41.67c12.39,0,22.48-10.08,22.48-22.48v-82.47
				C385.9,205.06,375.82,194.98,363.42,194.98z M327.08,166.62c2.59,0,4.7,2.11,4.7,4.7v23.66h-10.03v-28.36H327.08z M156.81,171.33
				c0-2.59,2.11-4.7,4.7-4.7h5.33v28.36h-10.03V171.33z M125.17,203.28h23.34v23.34c0,7.34,5.97,13.31,13.31,13.31h32.09
				c2.29,0,4.15-1.86,4.15-4.15c0-2.29-1.86-4.15-4.15-4.15h-32.09c-2.77,0-5.02-2.25-5.02-5.02v-23.34h10.03v14.18
				c0,2.29,1.86,4.15,4.15,4.15h146.62c2.29,0,4.15-1.86,4.15-4.15v-14.18h10.03v23.34c0,2.77-2.25,5.02-5.02,5.02H210.51
				c-2.29,0-4.15,1.86-4.15,4.15c0,2.29,1.86,4.15,4.15,4.15h116.27c7.34,0,13.31-5.97,13.31-13.31v-23.34h23.34
				c7.82,0,14.18,6.36,14.18,14.18v41.67h-41.67H152.66h-41.67v-41.67C110.99,209.64,117.36,203.28,125.17,203.28L125.17,203.28z
				 M110.99,299.93v-32.51h37.52v46.68h-23.34C117.36,314.11,110.99,307.75,110.99,299.93z M313.46,341.32
				c0,0.15-0.12,0.28-0.28,0.28H175.42c-0.15,0-0.28-0.12-0.28-0.28v-46.41h138.32V341.32z M317.61,286.62H170.99
				c-2.29,0-4.15,1.86-4.15,4.15v23.34h-10.03v-46.68h174.97v46.68h-10.03v-23.34C321.76,288.47,319.9,286.62,317.61,286.62z
				 M363.42,314.11h-23.34v-46.69h37.52v32.51C377.6,307.75,371.24,314.11,363.42,314.11z"/>
			<path class="st10" d="M125.17,286.62c-2.29,0-4.15,1.86-4.15,4.15v9.16c0,2.29,1.86,4.15,4.15,4.15c2.29,0,4.15-1.86,4.15-4.15
				v-9.16C129.32,288.47,127.46,286.62,125.17,286.62z"/>
			<path class="st10" d="M363.43,286.62c-2.29,0-4.15,1.86-4.15,4.15v9.16c0,2.29,1.86,4.15,4.15,4.15c2.29,0,4.15-1.86,4.15-4.15
				v-9.16C367.57,288.47,365.72,286.62,363.43,286.62z"/>
			<path class="st10" d="M281.11,304.94h-73.62c-4.73,0-8.57,3.85-8.57,8.57v9.48c0,4.73,3.85,8.57,8.57,8.57h73.62
				c4.73,0,8.57-3.85,8.57-8.57v-9.48C289.68,308.79,285.84,304.94,281.11,304.94z M281.39,322.99c0,0.15-0.12,0.28-0.28,0.28
				h-73.62c-0.15,0-0.28-0.12-0.28-0.28v-9.48c0-0.15,0.12-0.28,0.28-0.28h73.62c0.15,0,0.28,0.12,0.28,0.28V322.99z"/>
		</g>
	</g>
	<circle class="st1" cx="435.62" cy="165.09" r="10.25"/>
</g>
</svg>
