<?xml version="1.0" encoding="utf-8"?>
<!-- Generator: Adobe Illustrator 24.2.3, SVG Export Plug-In . SVG Version: 6.00 Build 0)  -->
<svg version="1.1" id="Layer_1" xmlns="http://www.w3.org/2000/svg" xmlns:xlink="http://www.w3.org/1999/xlink" x="0px" y="0px"
	 viewBox="0 0 465.88 465.88" style="enable-background:new 0 0 465.88 465.88;" xml:space="preserve">
<style type="text/css">
	.st0{fill:#E6E6E6;}
	.st1{fill:#DD2A2F;}
	.st2{fill:none;stroke:#999999;}
	.st3{fill:#666666;}
	.st4{fill:none;stroke:#DD2A2F;stroke-width:3;stroke-linejoin:round;stroke-miterlimit:10;}
	.st5{opacity:0.22;fill:#999999;}
	.st6{opacity:0.22;}
	.st7{fill:#999999;}
	.st8{fill:#FFFFFF;}
	.st9{fill:none;stroke:#DD2A2F;stroke-width:5;stroke-linecap:round;stroke-linejoin:round;stroke-miterlimit:10;}
	.st10{fill:#232121;}
	.st11{fill:#C1C1C1;}
	.st12{fill:#B5242F;}
	.st13{fill:#404242;}
	.st14{fill:#565959;}
	.st15{fill:#1A1A1A;}
	.st16{opacity:0.43;fill:#666666;}
	.st17{opacity:0.64;fill:#666666;}
	.st18{opacity:0.18;fill:#666666;}
	.st19{fill:#0F0F0F;}
	.st20{fill:#EBE1DC;}
	.st21{fill:#F7F3F1;}
	.st22{fill:#E6E9ED;}
	.st23{fill:#9EA7AF;}
	.st24{fill-rule:evenodd;clip-rule:evenodd;fill:#D0D7DF;}
	.st25{fill-rule:evenodd;clip-rule:evenodd;fill:#DD2A2F;}
	.st26{fill-rule:evenodd;clip-rule:evenodd;}
	.st27{fill:#D5F6EA;}
	.st28{fill:none;stroke:#4D4D4D;stroke-miterlimit:10;}
</style>
<g>
	<g>
		<circle class="st8" cx="222.99" cy="231.25" r="196.64"/>
		<path class="st9" d="M439.53,235.7c0,107.29-88.28,195.57-195.57,195.57S48.39,342.99,48.39,235.7S136.67,40.13,243.96,40.13
			c70.89,0,136.45,38.55,170.91,100.5"/>
		<circle class="st1" cx="429.58" cy="167.11" r="9.95"/>
	</g>
	<g>
		<path class="st10" d="M219.95,256.7c4.19,3.03,9.34,4.81,14.91,4.81h47.65v23.1l30.2-23.1h13.03c14.05,0,25.43-11.35,25.43-25.36
			v-90.61c0-14-11.39-25.36-25.43-25.36h-90.88c-14.05,0-25.43,11.35-25.43,25.36V256.7H219.95z"/>
		<path class="st19" d="M325.74,120.19h-21.78c14.05,0,25.43,11.35,25.43,25.36v90.61c0,14-11.39,25.36-25.43,25.36h-13.03
			l-8.42,6.44v16.66l30.2-23.1h13.03c14.05,0,25.43-11.35,25.43-25.36v-90.61C351.18,131.54,339.79,120.19,325.74,120.19z"/>
		<path class="st0" d="M260.7,224.34l2.62,2.12c4.16,3.36,9.34,5.2,14.69,5.2h37.21c3.53,0,6.37-2.94,6.2-6.51
			c-0.16-3.34,0.01-33.75,0.01-37.17c0-3.43-2.78-6.21-6.21-6.21l-25.24-0.08l3.09-7.32c3.21-7.6,2.69-16.27-1.4-23.44
			c-1.16-2.03-3.76-2.69-5.75-1.47c-1.22,0.75-1.97,2.08-1.97,3.52c0,6.56-2.4,12.9-6.74,17.82l-16.09,18.21h-5.87v35.32
			L260.7,224.34L260.7,224.34z"/>
		<path class="st1" d="M258.19,229.94H241.2c-1.12,0-2.03-0.91-2.03-2.03V184.6c0-1.12,0.91-2.03,2.03-2.03h16.99
			c1.12,0,2.03,0.91,2.03,2.03v43.31C260.23,229.03,259.32,229.94,258.19,229.94z"/>
		<path class="st0" d="M219.99,302.11v-91.45c0-11.04-8.98-20-20.06-20h-71.67c-11.08,0-20.06,8.95-20.06,20v71.45
			c0,11.04,8.98,20,20.06,20h39.37v18.39l23.82-18.39H219.99z"/>
		<path class="st20" d="M199.93,190.66h-28.4c11.08,0,20.06,8.95,20.06,20v91.45h28.4v-91.45
			C219.99,199.62,211.01,190.66,199.93,190.66z"/>
		<path class="st1" d="M258.78,287.49h-50.86c-7.86,0-14.23,6.35-14.23,14.19v50.7c0,7.84,6.37,14.19,14.23,14.19h27.94v13.05
			l16.9-13.05h6.02c7.86,0,14.23-6.35,14.23-14.19v-50.7C273.02,293.85,266.64,287.49,258.78,287.49L258.78,287.49z"/>
		<path class="st12" d="M258.78,287.49h-21.92c7.86,0,14.23,6.35,14.23,14.19v50.71c0,7.84-6.37,14.19-14.23,14.19h-1v13.05
			l16.9-13.05h6.02c7.86,0,14.23-6.35,14.23-14.19v-50.71C273.02,293.85,266.64,287.49,258.78,287.49z"/>
		<path class="st21" d="M233.35,344.27c12.24-6.49,18.58-12.01,18.58-20.56c0-11.8-14.45-14.75-18.58-5.9
			c-4.72-9.14-18.58-5.9-18.58,5.9C214.77,332.26,221.11,337.78,233.35,344.27z"/>
		<path d="M325.74,116.28h-11.49c-5.05,0-5.05,7.83,0,7.83h11.49c11.87,0,21.52,9.62,21.52,21.44v90.61
			c0,11.82-9.65,21.44-21.52,21.44h-13.03c-0.86,0-1.7,0.28-2.38,0.81l-23.91,18.29v-15.18c0-2.16-1.75-3.92-3.92-3.92h-47.65
			c-3.9,0-7.65-1.03-10.96-2.99v-43.95c0-8.23-4.19-15.51-10.56-19.81v-45.3c0-11.82,9.65-21.44,21.52-21.44h54.86
			c5.05,0,5.05-7.83,0-7.83h-54.86c-16.18,0-29.35,13.13-29.35,29.27v41.86c-1.79-0.43-3.66-0.66-5.58-0.66h-71.67
			c-13.22,0-23.97,10.73-23.97,23.91v8.45c0,5.05,7.83,5.05,7.83,0v-8.45c0-8.87,7.24-16.08,16.14-16.08h71.67
			c8.9,0,16.14,7.21,16.14,16.08v45.51c-0.05,0.35-0.04,0.69,0,1.04v24.91c0,0.49-0.03,0.98-0.07,1.47h-8.07
			c-8.9,0-16.31,6.42-17.85,14.86c-0.36,0.13-0.7,0.32-1.01,0.57l-17.51,13.52V302.1c0-2.16-1.75-3.92-3.92-3.92h-39.37
			c-8.9,0-16.14-7.21-16.14-16.08V242.6c0-5.05-7.83-5.05-7.83,0v39.51c0,13.18,10.75,23.91,23.97,23.91h35.46v14.48
			c0,3.14,3.81,5.02,6.31,3.1l19.75-15.25v44.04c0,9.98,8.14,18.1,18.15,18.1h24.03v9.14c0,3.14,3.81,5.03,6.31,3.1l15.85-12.23
			h4.68c10.01,0,18.15-8.12,18.15-18.1v-6.95c0-5.05-7.83-5.05-7.83,0v6.95c0,5.67-4.63,10.27-10.32,10.27h-6.02
			c-0.87,0-1.71,0.29-2.39,0.82l-10.6,8.18v-5.08c0-2.16-1.75-3.92-3.92-3.92h-27.94c-5.69,0-10.32-4.61-10.32-10.27v-50.7
			c0-5.67,4.63-10.27,10.32-10.27h50.86c5.69,0,10.32,4.61,10.32,10.27v19.22c0,5.05,7.83,5.05,7.83,0v-19.22
			c0-9.98-8.14-18.1-18.15-18.1h-34.93c0.03-0.49,0.04-20.26,0.04-20.26c3.45,1.39,7.15,2.11,10.96,2.11h43.73v19.19
			c0,3.13,3.8,5.02,6.29,3.11l29.15-22.3h11.7c16.18,0,29.35-13.13,29.35-29.27v-90.61C355.09,129.41,341.93,116.28,325.74,116.28
			L325.74,116.28z"/>
		<path d="M290.08,145.2c-4.97-1.27-10.04,2.66-10.04,7.8c0,5.61-2.05,11.02-5.76,15.23l-10.79,12.21c-0.7-1.07-1.91-1.78-3.28-1.78
			h-21.06c-2.16,0-3.92,1.75-3.92,3.92v47.38c0,2.16,1.75,3.92,3.92,3.92h21.06c1.58,0,2.94-0.94,3.56-2.29
			c4.26,2.6,9.2,4.01,14.23,4.01h37.21c5.69,0,10.38-4.93,10.11-10.61c-0.12-2.51,0.01-36.24,0.01-36.99
			c0-5.58-4.54-10.12-10.11-10.12l-19.35-0.06l0.8-1.9c3.66-8.67,3.06-18.73-1.61-26.9C293.99,147.1,292.21,145.75,290.08,145.2
			C287.95,144.66,292.21,145.75,290.08,145.2C285.11,143.93,292.21,145.75,290.08,145.2L290.08,145.2z M256.31,226.03h-13.23v-39.55
			h13.23V226.03z M315.23,185.69c1.26,0,2.29,1.03,2.29,2.29c0,0.74-0.01,2.77-0.02,5.51c-0.06,15.13-0.1,29.47,0.02,31.85
			c0.04,0.86-0.38,1.43-0.63,1.7c-0.44,0.46-1.03,0.71-1.66,0.71h-37.21c-4.44,0-8.78-1.54-12.23-4.33l-1.65-1.33v-30.55
			l16.02-18.13c4.98-5.64,7.72-12.89,7.72-20.41c0-0.22,0.3-0.28,0.4-0.11c3.47,6.07,3.91,13.53,1.2,19.97l-3.09,7.32
			c-0.51,1.21-0.38,2.59,0.34,3.68c0.72,1.09,1.94,1.75,3.25,1.76L315.23,185.69z"/>
		<path d="M137.81,252.26c-2.16,0-3.92,1.75-3.92,3.92c0,2.16,1.75,3.92,3.92,3.92h11.54l-2.16,13.04c-0.35,2.13,1.09,4.15,3.22,4.5
			c0.22,0.04,0.43,0.05,0.64,0.05c1.88,0,3.54-1.36,3.86-3.28l2.37-14.32h9.44l-2.16,13.04c-0.35,2.13,1.09,4.15,3.22,4.5
			c0.22,0.04,0.43,0.05,0.64,0.05c1.88,0,3.54-1.36,3.86-3.28l2.37-14.32h15.71c2.16,0,3.92-1.75,3.92-3.92
			c0-2.16-1.75-3.92-3.92-3.92h-14.41l1.58-9.55h12.84c2.16,0,3.92-1.75,3.92-3.92s-1.75-3.92-3.92-3.92h-11.54l2.16-13.04
			c0.35-2.13-1.09-4.15-3.22-4.5c-2.14-0.35-4.15,1.09-4.5,3.22l-2.37,14.32h-9.44l2.16-13.04c0.35-2.13-1.09-4.15-3.22-4.5
			c-2.14-0.35-4.15,1.09-4.5,3.22l-2.37,14.32h-15.71c-2.16,0-3.92,1.75-3.92,3.92s1.75,3.92,3.92,3.92h14.41l-1.58,9.55
			L137.81,252.26z M160.16,242.71h9.44l-1.58,9.55h-9.44L160.16,242.71z"/>
		<path d="M233.31,311.61c-3.16-2.6-7.37-3.63-11.59-2.6c-5.41,1.31-10.86,6.37-10.86,14.7c0,5.19,1.89,9.69,5.78,13.76
			c3.18,3.33,7.77,6.49,14.88,10.26c0.57,0.3,1.2,0.46,1.83,0.46c0.63,0,1.26-0.15,1.83-0.46c12.4-6.57,20.66-13.18,20.66-24.02
			c0-8.38-5.65-13.38-11.25-14.62C240.39,308.15,236.32,309.14,233.31,311.61L233.31,311.61z M248.02,323.7
			c0,5.85-3.88,10.18-14.66,16.11c-10.78-5.94-14.67-10.26-14.67-16.11c0-4.35,2.52-6.52,4.88-7.09c0.43-0.11,0.9-0.16,1.38-0.16
			c1.77,0,3.73,0.82,4.93,3.15c0.69,1.33,2.07,2.15,3.56,2.12c1.49-0.03,2.84-0.91,3.47-2.26c1.27-2.72,3.93-3.19,6-2.73
			C245.38,317.28,248.02,319.4,248.02,323.7z"/>
	</g>
</g>
</svg>
