<?xml version="1.0" encoding="utf-8"?>
<!-- Generator: Adobe Illustrator 24.2.3, SVG Export Plug-In . SVG Version: 6.00 Build 0)  -->
<svg version="1.1" id="Layer_1" xmlns="http://www.w3.org/2000/svg" xmlns:xlink="http://www.w3.org/1999/xlink" x="0px" y="0px"
	 viewBox="0 0 465.88 465.88" style="enable-background:new 0 0 465.88 465.88;" xml:space="preserve">
<style type="text/css">
	.st0{fill:#E6E6E6;}
	.st1{fill:#DD2A2F;}
	.st2{fill:none;stroke:#999999;}
	.st3{fill:#666666;}
	.st4{fill:none;stroke:#DD2A2F;stroke-width:3;stroke-linejoin:round;stroke-miterlimit:10;}
	.st5{opacity:0.22;fill:#999999;}
	.st6{opacity:0.22;}
	.st7{fill:#999999;}
	.st8{fill:#FFFFFF;}
	.st9{fill:none;stroke:#DD2A2F;stroke-width:5;stroke-linecap:round;stroke-linejoin:round;stroke-miterlimit:10;}
	.st10{fill:#232121;}
	.st11{fill:#C1C1C1;}
	.st12{fill:#B5242F;}
	.st13{fill:#404242;}
	.st14{fill:#565959;}
	.st15{fill:#1A1A1A;}
	.st16{opacity:0.43;fill:#666666;}
	.st17{opacity:0.64;fill:#666666;}
	.st18{opacity:0.18;fill:#666666;}
	.st19{fill:#0F0F0F;}
	.st20{fill:#EBE1DC;}
	.st21{fill:#F7F3F1;}
	.st22{fill:#E6E9ED;}
	.st23{fill:#9EA7AF;}
	.st24{fill-rule:evenodd;clip-rule:evenodd;fill:#D0D7DF;}
	.st25{fill-rule:evenodd;clip-rule:evenodd;fill:#DD2A2F;}
	.st26{fill-rule:evenodd;clip-rule:evenodd;}
	.st27{fill:#D5F6EA;}
	.st28{fill:none;stroke:#4D4D4D;stroke-miterlimit:10;}
</style>
<g>
	<g>
		<circle class="st8" cx="222.87" cy="231.4" r="202.87"/>
		<path class="st9" d="M101.84,93.31c78.27-78.27,207.08-78.27,285.34,0s78.27,207.08,0,285.34s-207.08,78.27-285.34,0
			c-51.72-51.72-71.42-127.66-51.36-198"/>
		<circle class="st1" cx="59.06" cy="150.6" r="10.26"/>
	</g>
	<g>
		<path class="st16" d="M151.37,164.32c-1.84,0.11-3.55,1.02-4.68,2.48c-12.05,15.5-21.03,33.96-23.45,53.39
			c-0.23,1.84,0.34,3.68,1.56,5.06c1.23,1.38,2.98,2.18,4.83,2.18h27.36c3.14,0,5.83-2.27,6.35-5.37
			c1.79-10.6,5.86-20.42,12.09-29.17c1.82-2.56,1.53-6.07-0.69-8.29l-18.41-18.4C155.02,164.9,153.34,164.26,151.37,164.32z"/>
		<path class="st17" d="M146.69,300.94c1.13,1.46,2.84,2.37,4.68,2.48c2.01,0.09,3.71-0.63,4.96-1.87l18.41-18.4
			c2.23-2.22,2.52-5.73,0.69-8.29c-6.23-8.75-10.3-18.56-12.09-29.17c-0.52-3.1-3.21-5.37-6.35-5.37h-27.36
			c-1.85,0-3.6,0.79-4.83,2.18c-1.22,1.38-1.79,3.23-1.56,5.06C125.66,266.98,134.64,285.44,146.69,300.94z"/>
		<path class="st18" d="M188.4,177.38c1.3,0,2.61-0.4,3.74-1.19c8.75-6.23,18.56-10.3,29.17-12.09c3.1-0.52,5.37-3.21,5.37-6.35
			v-27.36c0-1.85-0.79-3.6-2.18-4.83c-1.38-1.22-3.2-1.77-5.06-1.56c-19.43,2.42-37.89,11.4-53.39,23.46
			c-1.46,1.13-2.37,2.84-2.48,4.68s0.57,3.65,1.87,4.96l18.4,18.41C185.09,176.74,186.73,177.38,188.4,177.38L188.4,177.38z"/>
		<path class="st3" d="M221.3,303.65c-10.6-1.79-20.42-5.86-29.17-12.09c-2.56-1.82-6.08-1.53-8.29,0.69l-18.4,18.41
			c-1.31,1.31-1.99,3.11-1.87,4.96c0.11,1.84,1.02,3.55,2.48,4.68c15.5,12.05,33.96,21.03,53.39,23.45
			c1.95,0.23,3.74-0.39,5.06-1.56c1.38-1.23,2.18-2.98,2.18-4.83V310C226.67,306.85,224.4,304.17,221.3,303.65z"/>
		<path class="st1" d="M246.79,123.99c-1.83-0.21-3.68,0.34-5.06,1.56c-1.38,1.23-2.18,2.98-2.18,4.83v27.36
			c0,3.14,2.27,5.82,5.37,6.35c34.21,5.77,59.04,35.12,59.04,69.77s-24.83,64-59.04,69.77c-3.09,0.53-5.37,3.21-5.37,6.35v27.36
			c0,1.85,0.79,3.6,2.18,4.83c1.32,1.16,3.12,1.79,5.06,1.56c54.62-6.82,96.24-54.81,96.24-109.88S301.41,130.81,246.79,123.99
			L246.79,123.99z"/>
		<path class="st1" d="M278.2,233.87c0-2.26-1.19-4.36-3.13-5.52l-64.41-38.65c-1.99-1.19-4.47-1.23-6.49-0.08
			c-2.02,1.14-3.26,3.28-3.26,5.6v77.29c0,2.32,1.25,4.46,3.26,5.6c2.02,1.14,4.5,1.11,6.49-0.08l64.41-38.65
			C277.01,238.23,278.2,236.14,278.2,233.87z"/>
	</g>
</g>
</svg>
