<?xml version="1.0" encoding="utf-8"?>
<!-- Generator: Adobe Illustrator 24.2.3, SVG Export Plug-In . SVG Version: 6.00 Build 0)  -->
<svg version="1.1" id="Layer_1" xmlns="http://www.w3.org/2000/svg" xmlns:xlink="http://www.w3.org/1999/xlink" x="0px" y="0px"
	 viewBox="0 0 465.88 465.88" style="enable-background:new 0 0 465.88 465.88;" xml:space="preserve">
<style type="text/css">
	.st0{fill:#E6E6E6;}
	.st1{fill:#DD2A2F;}
	.st2{fill:none;stroke:#999999;}
	.st3{fill:#666666;}
	.st4{fill:none;stroke:#DD2A2F;stroke-width:3;stroke-linejoin:round;stroke-miterlimit:10;}
	.st5{opacity:0.22;fill:#999999;}
	.st6{opacity:0.22;}
	.st7{fill:#999999;}
	.st8{fill:#FFFFFF;}
	.st9{fill:none;stroke:#DD2A2F;stroke-width:5;stroke-linecap:round;stroke-linejoin:round;stroke-miterlimit:10;}
	.st10{fill:#232121;}
	.st11{fill:#C1C1C1;}
	.st12{fill:#B5242F;}
	.st13{fill:#404242;}
	.st14{fill:#565959;}
	.st15{fill:#1A1A1A;}
	.st16{opacity:0.43;fill:#666666;}
	.st17{opacity:0.64;fill:#666666;}
	.st18{opacity:0.18;fill:#666666;}
	.st19{fill:#0F0F0F;}
	.st20{fill:#EBE1DC;}
	.st21{fill:#F7F3F1;}
	.st22{fill:#E6E9ED;}
	.st23{fill:#9EA7AF;}
	.st24{fill-rule:evenodd;clip-rule:evenodd;fill:#D0D7DF;}
	.st25{fill-rule:evenodd;clip-rule:evenodd;fill:#DD2A2F;}
	.st26{fill-rule:evenodd;clip-rule:evenodd;}
	.st27{fill:#D5F6EA;}
	.st28{fill:none;stroke:#4D4D4D;stroke-miterlimit:10;}
</style>
<g>
	<g>
		<circle class="st8" cx="223.12" cy="231.39" r="196.78"/>
		<g>
			<path class="st9" d="M75.75,136.05C130.5,43.69,251.54,12.74,343.9,67.49s123.31,175.79,68.56,268.14
				s-175.79,123.31-268.14,68.56c-61.03-36.17-97.79-102.81-95.84-173.72"/>
			<circle class="st1" cx="49.32" cy="200.16" r="9.96"/>
		</g>
	</g>
	<g>
		<g>
			<g>
				<path class="st8" d="M188.37,165.26h131.22L179.8,108.18l-74.55,182.47l83.12,33.94V165.26z"/>
			</g>
			<g>
				<g>
					<g>
						<path class="st0" d="M178.04,320.35l10.33,4.24V165.26h-10.33V320.35z"/>
					</g>
				</g>
			</g>
			<g>
				<path class="st8" d="M188.37,167.85h171.31v175.44H188.37L188.37,167.85z"/>
			</g>
			<g>
				<path class="st27" d="M349.29,165.26v165.11H188.37v10.33h171.26V165.26L349.29,165.26z"/>
			</g>
			<g>
				<path class="st1" d="M211.72,191.2h124.55v124.55H211.72L211.72,191.2z"/>
			</g>
			<g>
				<path class="st12" d="M325.94,191.2v114.27H211.72v10.33h124.55V191.2L325.94,191.2z"/>
			</g>
			<g id="XMLID_3_">
				<g>
					<path class="st0" d="M311.12,204.53c6.08,0,11,4.93,11,11c0,6.08-4.93,11-11,11c-6.08,0-11-4.93-11-11
						C300.11,209.45,305.04,204.53,311.12,204.53z"/>
				</g>
			</g>
		</g>
		<g>
			<g>
				<path d="M320.36,161.39l-142.69-58.27l-43.34,106.11l-2.89,7.13l7.18,2.94l2.89-7.18l40.4-98.88l117.94,48.15H184.5v157.46
					l-74.18-30.33l17.2-42.16l-3.56-1.45l3.56,1.45l2.27-5.53l-7.13-2.94l-2.27,5.58l-20.15,49.28l84.26,34.46v17.36H363.5V227.36
					v-1.34v-6.41h-7.75v6.41v1.34v109.47H192.25v-6.46V169.14h147.08h16.43v19.48v7.75h7.75v-7.75v-27.23H320.36z"/>
				<path d="M355.75,204.11h7.75v7.75h-7.75V204.11z"/>
				<path d="M135.62,226.52l-2.93,7.18l-7.18-2.93l2.93-7.18L135.62,226.52z"/>
				<path d="M207.85,319.68h2.48h37.14h6.66h85.45h0.57V187.32h-132.3L207.85,319.68z M260.59,311.93l34.97-63.39l9.14,18.44h-16.17
					v7.75h19.99l18.49,37.25h-66.44V311.93z M332.4,195.07v110.19l-36.52-73.46l-44.17,80.13H223.4l35.03-63.54l8.01,15.55
					l6.87-3.56l-14.67-28.52l-43.03,78.27V195.07L332.4,195.07z"/>
				<path d="M311.12,230.41c8.21,0,14.88-6.66,14.88-14.88c0-8.21-6.66-14.88-14.88-14.88c-8.21,0-14.88,6.66-14.88,14.88
					C296.24,223.74,302.9,230.41,311.12,230.41z M311.12,208.4c3.93,0,7.13,3.2,7.13,7.13s-3.2,7.13-7.13,7.13
					c-3.93,0-7.13-3.2-7.13-7.13S307.19,208.4,311.12,208.4z"/>
			</g>
			<g>
				<path class="st8" d="M262.4,210.47h-6.97v-7.75h6.97V210.47z M247.68,210.47h-7.75v-7.75h7.75V210.47z M232.18,210.47h-7.75
					v-7.75h7.75V210.47z"/>
			</g>
		</g>
	</g>
</g>
</svg>
