<?xml version="1.0" encoding="utf-8"?>
<!-- Generator: Adobe Illustrator 24.2.3, SVG Export Plug-In . SVG Version: 6.00 Build 0)  -->
<svg version="1.1" id="Layer_1" xmlns="http://www.w3.org/2000/svg" xmlns:xlink="http://www.w3.org/1999/xlink" x="0px" y="0px"
	 viewBox="0 0 465.88 465.88" style="enable-background:new 0 0 465.88 465.88;" xml:space="preserve">
<style type="text/css">
	.st0{fill:#E6E6E6;}
	.st1{fill:#DD2A2F;}
	.st2{fill:none;stroke:#999999;}
	.st3{fill:#666666;}
	.st4{fill:none;stroke:#DD2A2F;stroke-width:3;stroke-linejoin:round;stroke-miterlimit:10;}
	.st5{opacity:0.22;fill:#999999;}
	.st6{opacity:0.22;}
	.st7{fill:#999999;}
	.st8{fill:#FFFFFF;}
	.st9{fill:none;stroke:#DD2A2F;stroke-width:5;stroke-linecap:round;stroke-linejoin:round;stroke-miterlimit:10;}
	.st10{fill:#232121;}
	.st11{fill:#C1C1C1;}
	.st12{fill:#B5242F;}
	.st13{fill:#404242;}
	.st14{fill:#565959;}
	.st15{fill:#1A1A1A;}
	.st16{opacity:0.43;fill:#666666;}
	.st17{opacity:0.64;fill:#666666;}
	.st18{opacity:0.18;fill:#666666;}
	.st19{fill:#0F0F0F;}
	.st20{fill:#EBE1DC;}
	.st21{fill:#F7F3F1;}
	.st22{fill:#E6E9ED;}
	.st23{fill:#9EA7AF;}
	.st24{fill-rule:evenodd;clip-rule:evenodd;fill:#D0D7DF;}
	.st25{fill-rule:evenodd;clip-rule:evenodd;fill:#DD2A2F;}
	.st26{fill-rule:evenodd;clip-rule:evenodd;}
	.st27{fill:#D5F6EA;}
	.st28{fill:none;stroke:#4D4D4D;stroke-miterlimit:10;}
</style>
<g>
	<circle class="st8" cx="222.82" cy="231.34" r="202.82"/>
	<path class="st1" d="M213,353.46c-18.71-28.84-37.33-57.56-55.96-86.28c-0.13,0.06-0.25,0.11-0.38,0.17
		c0.31,0.79,0.59,1.61,0.94,2.38c6.26,13.65,12.52,27.29,18.84,40.91c0.29,0.63,1.03,1.2,1.7,1.5c1.49,0.66,2.42,2.25,1.96,3.72
		c-0.45,1.45-2.12,2.33-3.56,1.9c-1.64-0.5-2.43-1.9-1.8-3.64c0.43-1.17,0.19-2.08-0.3-3.13c-4.45-9.64-8.86-19.29-13.28-28.94
		c-3.32-7.25-6.64-14.5-9.97-21.75c-0.2-0.44-0.48-0.85-0.77-1.34c-0.63,0.18-1.2,0.34-1.87,0.54c-0.75-1.58-1.51-3.16-2.22-4.76
		c-0.1-0.23,0-0.79,0.16-0.86c1.14-0.51,0.79-1.27,0.43-2.05c-3.41-7.39-6.79-14.79-10.26-22.16c-0.33-0.7-1.09-1.3-1.78-1.72
		c-1.25-0.76-1.87-2.26-1.31-3.69c0.5-1.3,1.92-1.94,3.41-1.56c1.5,0.39,2.55,1.72,1.88,3.09c-1.11,2.26-0.01,3.92,0.86,5.76
		c1.29,2.74,2.49,5.51,3.75,8.26c0.22,0.47,0.52,0.91,1.04,1.32c-1.29-8.17-1.47-16.24,0.37-24.35c1.84-8.11,5.47-15.3,10.4-21.92
		c-0.11-0.1-0.23-0.19-0.34-0.29c-1.13,1.04-2.27,2.07-3.38,3.12c-4.1,3.9-8.22,7.8-12.26,11.76c-0.45,0.44-0.63,1.28-0.72,1.96
		c-0.19,1.38-0.49,2.77-1.98,3.11c-0.95,0.21-2.22,0.09-3.04-0.39c-1.28-0.75-1.68-2.14-1.05-3.6c0.57-1.34,1.61-1.9,3.09-1.94
		c0.79-0.02,1.77-0.26,2.32-0.77c6.61-6.21,13.18-12.47,19.67-18.81c0.44-0.43,0.14-1.61,0.19-2.44c-0.2-0.07-0.4-0.13-0.6-0.2
		c1.4-1.35,2.81-2.69,4.27-4.09c0.58,0.51,1.03,0.9,1.66,1.45c1.63-1.41,3.29-2.82,4.92-4.26c6.79-6.02,13.54-12.08,20.37-18.07
		c0.96-0.84,1.42-1.65,1.43-2.94c0.01-1.47,1.28-2.67,2.59-2.76c1.69-0.12,3.03,0.76,3.42,2.25c0.42,1.6-0.25,3.06-1.69,3.7
		c-0.25,0.11-0.57,0.3-0.77,0.23c-2.05-0.74-3.12,0.72-4.39,1.84c-6.7,5.95-13.43,11.87-20.14,17.81c-0.07,0.07-0.1,0.19,0.01,0.52
		c31.16-20.62,62.31-41.23,93.21-61.68c8.65,13.05,17.07,25.75,25.57,38.57c-0.47,0.35-0.84,0.65-1.24,0.92
		c-25.77,17.06-51.55,34.1-77.3,51.18c-3.34,2.22-6.72,4.43-9.8,6.99c-6.61,5.51-8.04,12.38-4.12,20.06
		c2.1,4.1,4.65,7.99,7.14,11.88c7.5,11.74,15.06,23.44,22.6,35.15c0.2,0.31,0.45,0.59,0.77,1c4.06-2.54,8.1-5,12.07-7.56
		c14.34-9.26,28.69-18.52,42.98-27.86c4.45-2.91,4.98-5.1,2.56-9.87c-1.1-2.17-2.65-4.12-3.88-5.98
		c-16.61,10.72-32.92,21.25-49.34,31.86c-0.53-0.75-0.89-1.22-1.2-1.72c-5.49-8.65-10.96-17.31-16.45-25.96
		c-2.17-3.42-2.87-6.97-0.47-10.49c0.89-1.31,2.34-2.32,3.7-3.21c19.76-12.97,39.55-25.89,59.33-38.82
		c6.55-4.28,13.12-8.52,19.64-12.84c1.19-0.79,1.71-0.58,2.42,0.56c7.07,11.36,14.2,22.69,21.3,34.03c0.68,1.09,1.31,2.22,1.96,3.34
		c0.12-0.06,0.23-0.12,0.35-0.19c-1.9-4.16-3.8-8.33-5.71-12.49c-1.65-3.6-3.27-7.22-5.02-10.77c-0.41-0.84-1.19-1.72-2.02-2.09
		c-1.63-0.73-2.56-2.09-2.1-3.75c0.5-1.79,2.07-2.59,4.03-2.05c1.58,0.44,2.64,2.06,1.94,3.6c-0.7,1.55-0.24,2.69,0.38,4.03
		c4.47,9.63,8.89,19.28,13.32,28.93c0.18,0.4,0.31,0.82,0.45,1.19c0.87-0.32,1.38-0.5,2.21-0.81c0.68,1.67,1.38,3.3,1.98,4.98
		c0.09,0.25-0.24,0.89-0.51,1c-1.18,0.48-1.01,1.15-0.6,2.1c3.43,8.1,6.82,16.22,10.2,24.34c0.43,1.04,0.88,1.88,2.15,2.23
		c1.66,0.45,2.29,2.16,1.73,4c-0.41,1.34-2.26,2.23-3.77,1.83c-1.54-0.41-2.8-2.12-2.08-3.52c1.05-2.04,0.1-3.56-0.59-5.23
		c-1.53-3.71-3.08-7.41-4.64-11.11c-0.22-0.51-0.53-0.99-0.95-1.45c2.01,15.05-1.57,28.62-10.16,41.1c0.35-0.25,0.73-0.47,1.05-0.75
		c2.71-2.41,5.4-4.86,8.14-7.23c0.75-0.65,1.17-1.22,1.07-2.32c-0.12-1.39,0.42-2.68,1.99-3.02c1.34-0.3,2.51,0.06,3.26,1.34
		c1.04,1.8-0.23,4.05-2.29,4.27c-0.85,0.09-1.83,0.4-2.45,0.95c-6.09,5.31-12.13,10.69-18.17,16.07c-0.55,0.49-1.29,0.96-0.55,1.92
		c0.15,0.19-0.02,0.86-0.25,1.09c-1.19,1.14-2.44,2.21-3.78,3.39c-1.37-1.91-2.34-0.73-3.49,0.31
		c-7.86,7.05-15.76,14.06-23.65,21.08c-5.92,5.26-11.85,10.51-17.73,15.82c-0.54,0.48-0.84,1.38-0.97,2.13
		c-0.35,1.96-1.45,2.98-3.2,2.75c-1.5-0.19-2.66-1.68-2.48-3.19c0.19-1.6,1.67-2.61,3.47-2.56c0.62,0.02,1.41-0.22,1.87-0.62
		c12.15-10.76,24.26-21.55,36.38-32.35c0.71-0.63,1.39-1.29,1.87-2.17C271.78,313.94,242.61,333.55,213,353.46z"/>
	<g>
		<path class="st9" d="M70.93,133.07C127.35,37.88,252.11,5.98,347.3,62.41s127.09,181.18,70.67,276.37s-181.18,127.09-276.37,70.67
			c-62.9-37.28-100.79-105.96-98.78-179.05"/>
		<circle class="st1" cx="43.69" cy="199.16" r="10.26"/>
	</g>
</g>
</svg>
